<svg xmlns="http://www.w3.org/2000/svg" width="58" height="58" viewBox="0 0 58 58" fill="none"><path d="M57.0003 28.797C57.1201 44.2947 44.3409 57.6751 28.0094 57.4C13.1232 57.151 0.0653436 45.1988 0.00023638 28.8179C-0.0648708 12.175 13.329 -0.0261631 28.5641 4.21311e-05C44.3356 0.0314884 57.0029 12.838 57.0003 28.797ZM14.7014 25.6471C13.6337 25.7152 13.1206 26.0821 12.8628 26.8421C12.5998 27.6177 12.8732 28.1942 13.4175 28.7105C14.0764 29.3342 14.7666 29.929 15.3864 30.592C17.6182 32.9715 20.7929 33.0396 23.0951 30.723C23.5248 30.2933 23.8894 29.798 24.3269 29.3761C25.2019 28.5349 26.0822 28.5402 26.9468 29.384C27.413 29.8399 27.8245 30.3509 28.2776 30.82C29.6735 32.2665 31.3793 32.6701 33.2883 32.2299C34.5279 31.9442 35.4081 31.0925 36.2415 30.1832C38.0619 28.2021 38.6166 28.2257 40.3589 30.2147C40.812 30.7335 41.3355 31.2183 41.9084 31.5983C42.6559 32.091 43.609 31.8656 44.1247 31.1974C44.6482 30.5186 44.6039 29.5674 43.9841 28.9254C43.2887 28.2073 42.5778 27.5077 41.859 26.8132C39.7729 24.8033 36.8249 24.7928 34.7336 26.7975C34.1998 27.3085 33.744 27.9007 33.2049 28.4039C32.3846 29.1717 31.4731 29.1586 30.6657 28.3777C30.2308 27.9558 29.8688 27.4553 29.4443 27.0203C27.2255 24.7404 24.2019 24.7194 21.9492 26.9626C21.5481 27.3609 21.1757 27.7907 20.7773 28.1916C19.7173 29.2582 18.8449 29.232 17.7849 28.1261C17.2146 27.5313 16.6729 26.8945 16.0401 26.3756C15.5869 26.0087 15.0035 25.8069 14.7014 25.6471ZM25.5665 20.1126C26.1525 20.4794 26.59 20.6733 26.9208 20.9799C27.4963 21.5093 27.9703 22.1461 28.5485 22.6702C30.5199 24.4574 33.3039 24.4731 35.2962 22.72C35.7832 22.2902 36.2103 21.7897 36.653 21.3101C37.8458 20.0208 38.6948 20.0235 39.9136 21.2918C40.5126 21.9155 41.0985 22.5706 41.7834 23.0895C42.5621 23.6817 43.5596 23.4956 44.1117 22.8012C44.6716 22.0963 44.5883 21.1319 43.9033 20.4349C43.3278 19.8453 42.747 19.2609 42.1741 18.666C39.9344 16.3285 36.7025 16.3128 34.4472 18.6424C34.1451 18.9543 33.8846 19.3054 33.5904 19.6251C32.4393 20.8856 31.4522 20.8751 30.3324 19.6068C29.9574 19.1823 29.5824 18.7577 29.1787 18.3647C27.2489 16.4936 24.3764 16.4071 22.3372 18.176C21.8789 18.5717 21.483 19.0434 21.0715 19.4889C19.7173 20.9511 18.91 20.9223 17.5349 19.4522C16.8864 18.7604 16.1833 18.0895 15.402 17.5602C14.5322 16.9732 13.4852 17.2562 13.0035 18.045C12.5295 18.8206 12.7352 19.7038 13.4931 20.3772C14.1389 20.9511 14.777 21.5381 15.3629 22.1697C16.8265 23.742 18.5949 24.329 20.6653 23.8101C21.9778 23.4825 22.9102 22.5706 23.7904 21.5696C24.2826 21.0193 24.9415 20.6183 25.5665 20.1126ZM14.8291 34.0695C13.7483 34.0983 13.1805 34.3944 12.8915 35.1491C12.5842 35.9536 12.8342 36.5878 13.4279 37.1407C14.1233 37.788 14.8343 38.4221 15.4984 39.0982C17.7042 41.3493 20.7694 41.4043 23.0117 39.1978C23.5065 38.7104 23.9363 38.1549 24.4467 37.6832C25.215 36.9756 26.1265 36.9913 26.8765 37.7094C27.3479 38.1601 27.7515 38.679 28.2099 39.1428C30.4287 41.3886 33.4549 41.3833 35.6972 39.1349C35.9733 38.8572 36.2337 38.5663 36.5019 38.2806C37.9343 36.7503 38.7442 36.7791 40.1245 38.3304C40.6688 38.9436 41.26 39.5411 41.9267 40.0049C42.6611 40.5159 43.6143 40.2722 44.1351 39.5961C44.656 38.9227 44.5961 38.0055 43.9632 37.3372C43.3669 36.7083 42.7106 36.1318 42.1428 35.4767C40.1584 33.189 36.4525 33.1706 34.4289 35.4898C34.0852 35.8829 33.7544 36.2864 33.3872 36.6585C32.4497 37.6098 31.4913 37.615 30.5668 36.6743C30.2334 36.3336 29.9313 35.9589 29.624 35.592C27.5614 33.1156 23.7357 33.2073 21.8268 35.4714C21.4622 35.9038 21.0767 36.3205 20.6731 36.7162C19.7694 37.5993 18.8709 37.5914 17.9568 36.6874C17.4307 36.1685 16.9828 35.5632 16.4177 35.0967C15.8656 34.6407 15.2145 34.3105 14.8291 34.0695Z" fill="#0271BC"></path><path d="M14.7014 25.6471C15.0035 25.807 15.5869 26.0087 16.0374 26.3756C16.6729 26.8945 17.212 27.5313 17.7823 28.1261C18.8423 29.232 19.7147 29.2582 20.7746 28.1916C21.1731 27.7907 21.5455 27.3635 21.9466 26.9626C24.2019 24.7194 27.2229 24.7404 29.4417 27.0203C29.8662 27.4553 30.2282 27.9558 30.6631 28.3777C31.4705 29.1586 32.382 29.1717 33.2023 28.4039C33.7414 27.8981 34.1998 27.3085 34.731 26.7975C36.8223 24.7928 39.7729 24.8033 41.8564 26.8132C42.5751 27.5051 43.2887 28.2074 43.9815 28.9254C44.6013 29.5674 44.6456 30.516 44.1221 31.1974C43.6064 31.8682 42.6507 32.0936 41.9058 31.5983C41.3329 31.221 40.8094 30.7335 40.3563 30.2147C38.6166 28.2257 38.0593 28.2021 36.2389 30.1832C35.4029 31.0925 34.5253 31.9442 33.2856 32.2299C31.3767 32.6701 29.6709 32.2665 28.275 30.82C27.8219 30.3509 27.4104 29.8373 26.9442 29.384C26.0796 28.5375 25.1993 28.5349 24.3243 29.3761C23.8868 29.7954 23.5196 30.2907 23.0925 30.7231C20.7877 33.0396 17.6156 32.9715 15.3838 30.592C14.7639 29.9317 14.0738 29.3368 13.4149 28.7105C12.8706 28.1942 12.5946 27.6177 12.8602 26.8421C13.1206 26.0847 13.6311 25.7179 14.7014 25.6471Z" fill="#FDFDFE"></path><path d="M25.5665 20.1126C24.9415 20.6183 24.2826 21.0193 23.7956 21.5722C22.9154 22.5732 21.983 23.4852 20.6705 23.8127C18.6001 24.329 16.8317 23.7446 15.3681 22.1723C14.7796 21.5407 14.1441 20.9511 13.4983 20.3798C12.7404 19.709 12.5347 18.8233 13.0086 18.0476C13.4904 17.2588 14.5374 16.9732 15.4072 17.5628C16.1885 18.0895 16.8916 18.763 17.5401 19.4548C18.9152 20.9223 19.7225 20.9537 21.0767 19.4915C21.4908 19.046 21.8867 18.5743 22.3424 18.1786C24.3816 16.4124 27.2541 16.4962 29.1839 18.3673C29.5902 18.7604 29.9652 19.1849 30.3376 19.6094C31.4574 20.8777 32.4445 20.8882 33.5956 19.6278C33.8898 19.3081 34.1503 18.9543 34.4524 18.6451C36.7103 16.318 39.9396 16.3338 42.1793 18.6686C42.7496 19.2635 43.3304 19.8479 43.9085 20.4375C44.5909 21.1346 44.6768 22.0989 44.1169 22.8038C43.5648 23.4983 42.5673 23.6817 41.7886 23.0921C41.1037 22.5732 40.5177 21.9181 39.9188 21.2944C38.7 20.0261 37.851 20.0235 36.6582 21.3128C36.2155 21.7923 35.7884 22.2928 35.3014 22.7226C33.3091 24.4757 30.5277 24.4574 28.5536 22.6728C27.9755 22.1487 27.4989 21.5119 26.926 20.9826C26.59 20.6733 26.1551 20.482 25.5665 20.1126Z" fill="#FDFDFE"></path><path d="M14.8291 34.0695C15.2145 34.3132 15.8656 34.6407 16.4177 35.0967C16.9828 35.5632 17.4308 36.1685 17.9569 36.6874C18.871 37.5914 19.7694 37.5993 20.6731 36.7162C21.0768 36.3205 21.4622 35.9038 21.8268 35.4714C23.7358 33.2073 27.5615 33.1156 29.6241 35.592C29.9314 35.9589 30.2309 36.3336 30.5668 36.6743C31.4939 37.6176 32.4497 37.6124 33.3873 36.6585C33.7519 36.2864 34.0852 35.8829 34.429 35.4898C36.4551 33.1706 40.1584 33.189 42.1429 35.4767C42.7106 36.1318 43.3669 36.7083 43.9633 37.3373C44.5961 38.0029 44.6534 38.9227 44.1352 39.5961C43.6143 40.2722 42.6611 40.5159 41.9267 40.0049C41.26 39.5411 40.6689 38.941 40.1246 38.3304C38.7469 36.7791 37.9344 36.7503 36.502 38.2806C36.2338 38.5663 35.9733 38.8598 35.6973 39.1349C33.455 41.3833 30.4288 41.3912 28.2099 39.1428C27.7516 38.679 27.3479 38.1601 26.8765 37.7094C26.1265 36.9913 25.215 36.9756 24.4467 37.6832C23.9363 38.1522 23.5066 38.7104 23.0118 39.1978C20.7695 41.4043 17.7042 41.3493 15.4984 39.0982C14.8343 38.4195 14.1233 37.7854 13.428 37.1407C12.8316 36.5878 12.5816 35.9536 12.8915 35.1491C13.1806 34.3944 13.7483 34.0983 14.8291 34.0695Z" fill="#FDFDFE"></path></svg>