<svg xmlns="http://www.w3.org/2000/svg" width="58" height="58" viewBox="0 0 58 58" fill="none"><path d="M28.491 4.17645e-05C43.8329 -0.0261635 57.0132 12.2824 57.008 28.6974C57.0054 45.1333 43.6949 57.5205 28.1942 57.3607C13.2195 57.2061 -0.0493435 45.1779 0.000137953 28.59C0.0496194 12.078 13.3081 -0.00519928 28.491 4.17645e-05ZM25.3659 30.6995C31.0068 30.6995 36.6503 30.7204 42.2912 30.6916C44.8902 30.6785 46.7731 29.3918 47.8175 27.036C48.8175 24.7745 48.5154 22.5523 46.9372 20.6524C45.3278 18.7158 43.1948 18.0502 40.7338 18.6241C37.5175 19.3736 35.4237 22.9715 36.3378 26.1319C36.5904 27.0072 37.1243 27.3871 37.9628 27.2902C38.778 27.1958 39.1973 26.6639 39.1686 25.7362C39.1556 25.3457 39.0748 24.9553 39.0774 24.5648C39.0879 22.7855 40.4369 21.3809 42.1609 21.3363C43.885 21.2918 45.3694 22.6623 45.458 24.3788C45.5491 26.1319 44.2964 27.6177 42.562 27.7907C42.1323 27.8326 41.6948 27.8195 41.2625 27.8195C30.3687 27.8195 19.4776 27.8195 8.58386 27.8221C7.06556 27.8221 6.40147 28.2624 6.40407 29.2582C6.40668 30.2592 7.06034 30.7021 8.57082 30.7021C14.17 30.7021 19.7667 30.6995 25.3659 30.6995ZM24.0924 31.8132C20.9699 31.8132 17.8447 31.8132 14.7222 31.8132C14.4175 31.8132 14.1128 31.7922 13.8107 31.8211C12.9018 31.9102 12.3887 32.4028 12.3523 33.189C12.3132 34.038 12.8236 34.5988 13.7846 34.7246C14.1258 34.7691 14.4774 34.7456 14.8237 34.7482C20.5063 34.7482 26.1889 34.7482 31.8714 34.7482C32.6527 34.7482 33.4366 34.7089 34.2127 34.7691C35.9706 34.908 37.2128 36.3782 37.1216 38.1496C37.0305 39.8766 35.5825 41.2156 33.8376 41.179C32.0928 41.1449 30.7542 39.7691 30.7385 37.9793C30.7359 37.6308 30.7932 37.2822 30.7932 36.9337C30.7932 36.1082 30.3296 35.6392 29.5692 35.4715C28.8973 35.3247 28.2228 35.7833 27.9936 36.5301C27.8921 36.8603 27.8478 37.2141 27.8243 37.56C27.6316 40.5002 29.5588 43.1758 32.3923 43.9148C35.2726 44.6669 38.2805 43.1994 39.4993 40.4478C41.3119 36.3493 38.4082 31.8813 33.8507 31.8184C30.6005 31.7765 27.3478 31.8132 24.0924 31.8132ZM21.0376 27.1487C23.5533 27.1487 26.0664 27.1932 28.5796 27.1382C31.9183 27.0622 34.3637 24.6985 34.6684 21.3494C34.9262 18.514 32.7568 15.6 29.9338 14.9921C26.7826 14.3107 23.6549 16.0403 22.7824 19.1456C22.4777 20.2252 22.5845 21.4674 22.7121 22.6099C22.8085 23.4616 23.6158 23.9097 24.319 23.7708C25.1393 23.6057 25.5846 22.9427 25.4831 22.0177C25.4492 21.7163 25.3555 21.4176 25.3503 21.1136C25.3268 19.7666 25.9284 18.742 27.0951 18.1288C28.215 17.5392 29.3739 17.61 30.413 18.3647C31.4912 19.1482 31.9287 20.2357 31.6969 21.5643C31.4052 23.2519 30.1708 24.2058 28.2202 24.2111C23.5377 24.2242 18.8552 24.2137 14.1753 24.2189C13.7429 24.2189 13.3028 24.2163 12.8835 24.2975C12.1543 24.439 11.7689 24.9448 11.7298 25.6759C11.6934 26.3913 12.2116 26.9862 12.9799 27.1172C13.3185 27.1749 13.6726 27.1487 14.019 27.1487C16.3577 27.1487 18.6963 27.1487 21.0376 27.1487Z" fill="#0486C8"></path><path d="M25.3659 30.6995C19.7667 30.6995 14.17 30.7021 8.57082 30.6995C7.06033 30.6995 6.40666 30.2566 6.40406 29.2556C6.40146 28.2598 7.06294 27.8195 8.58385 27.8195C19.4776 27.8195 30.3687 27.8195 41.2625 27.8169C41.6974 27.8169 42.1323 27.8326 42.562 27.7881C44.2965 27.6151 45.5491 26.1293 45.458 24.3761C45.3694 22.6597 43.885 21.2892 42.161 21.3337C40.4395 21.3783 39.0879 22.7829 39.0775 24.5622C39.0749 24.9527 39.1556 25.3431 39.1686 25.7336C39.1973 26.6612 38.7754 27.1932 37.9629 27.2876C37.1243 27.3845 36.5904 27.0019 36.3378 26.1293C35.4237 22.9689 37.5201 19.3709 40.7338 18.6215C43.1975 18.0476 45.3278 18.7132 46.9372 20.6498C48.5154 22.547 48.8175 24.7718 47.8175 27.0334C46.7758 29.3918 44.8903 30.6759 42.2912 30.689C36.6503 30.7178 31.0068 30.6995 25.3659 30.6995Z" fill="#FDFDFE"></path><path d="M24.0924 31.8132C27.3452 31.8132 30.6005 31.7765 33.8533 31.8211C38.4082 31.8839 41.312 36.3546 39.502 40.4504C38.2858 43.202 35.2779 44.6695 32.3949 43.9174C29.564 43.1784 27.6343 40.5002 27.827 37.5626C27.8504 37.2167 27.8947 36.8629 27.9963 36.5328C28.2254 35.7859 28.8999 35.3247 29.5718 35.4741C30.3323 35.6418 30.7959 36.1082 30.7959 36.9363C30.7959 37.2848 30.7386 37.6334 30.7412 37.9819C30.7594 39.7717 32.0954 41.1475 33.8403 41.1816C35.5825 41.2156 37.0331 39.8792 37.1243 38.1522C37.218 36.3808 35.9758 34.908 34.2153 34.7718C33.4392 34.7115 32.6553 34.7508 31.8741 34.7508C26.1915 34.7508 20.5089 34.7508 14.8263 34.7508C14.48 34.7508 14.1284 34.7718 13.7872 34.7272C12.8237 34.6041 12.3158 34.0406 12.3549 33.1916C12.3913 32.4054 12.9044 31.9154 13.8133 31.8237C14.1154 31.7949 14.4201 31.8158 14.7248 31.8158C17.8473 31.8132 20.9699 31.8132 24.0924 31.8132Z" fill="#FDFDFE"></path><path d="M21.0376 27.1487C18.6964 27.1487 16.3551 27.1487 14.0139 27.1487C13.6675 27.1487 13.3133 27.1749 12.9747 27.1172C12.2065 26.9862 11.6882 26.3913 11.7247 25.6759C11.7638 24.9422 12.1492 24.4364 12.8784 24.2975C13.2977 24.2163 13.7378 24.2215 14.1701 24.2189C18.8526 24.2137 23.5351 24.2242 28.215 24.2111C30.1657 24.2058 31.4001 23.2519 31.6918 21.5643C31.9235 20.2331 31.4834 19.1456 30.4079 18.3647C29.3688 17.61 28.2125 17.5392 27.09 18.1288C25.9233 18.742 25.3217 19.7666 25.3451 21.1136C25.3503 21.415 25.4441 21.7137 25.4779 22.0177C25.5795 22.9401 25.1342 23.6057 24.3138 23.7708C23.6133 23.9097 22.8033 23.4642 22.707 22.6099C22.5794 21.4674 22.4752 20.2252 22.7773 19.1456C23.6497 16.0403 26.7775 14.3133 29.9287 14.9921C32.7517 15.6026 34.9211 18.5167 34.6633 21.3494C34.3586 24.7011 31.9131 27.0648 28.5744 27.1382C26.0691 27.1932 23.5534 27.1487 21.0376 27.1487Z" fill="#FDFDFE"></path></svg>