<svg xmlns="http://www.w3.org/2000/svg" width="57" height="58" viewBox="0 0 57 58" fill="none"><path d="M28.6223 0.000204169C43.718 0.028829 56.9739 12.0773 57 28.4975C57.026 44.6654 43.8325 57.3826 27.7194 56.9974C12.4207 56.6357 -0.044121 43.9575 0.000117391 28.3804C0.0443558 13.0479 12.5248 -0.0596478 28.6223 0.000204169ZM24.6565 36.2132C24.4145 36.1169 24.1803 36.0181 23.9409 35.9296C22.5591 35.4143 21.2606 35.6225 20.1858 36.5905C19.655 37.0694 19.1397 37.2151 18.4657 37.2489C16.7561 37.3374 15.2702 38.8077 15.1374 40.5017C15.0802 41.2356 15.0932 41.9772 15.1322 42.7111C15.1713 43.4709 15.5876 43.8977 16.3345 44.0018C16.6337 44.0434 16.9408 44.0174 17.2453 44.0174C24.8335 44.0174 32.4242 44.0174 40.0124 44.0174C40.2284 44.0174 40.447 44.0278 40.663 44.0148C41.6336 43.9653 42.1827 43.4475 42.2322 42.4951C42.2608 41.9772 42.253 41.4542 42.2348 40.9337C42.1645 38.9144 40.6344 37.314 38.615 37.2385C37.9931 37.2151 37.5923 36.9835 37.1421 36.6062C36.0388 35.6798 34.7715 35.4039 33.3819 35.9166C33.1008 36.0207 32.8198 36.1195 32.5674 36.2132C32.0964 35.776 31.693 35.3076 31.1986 34.9745C30.6781 34.6232 30.0692 34.3994 29.4629 34.1028C29.4629 32.1225 29.4551 30.1291 29.4681 28.1358C29.4733 27.1912 29.8324 26.3949 30.5402 25.7547C30.9436 25.9577 31.2793 26.1555 31.6358 26.3012C33.4547 27.0559 35.2789 26.944 36.8117 25.773C39.2916 23.8733 40.8321 21.3882 40.7098 18.1093C40.6422 16.2591 39.5883 15.6476 37.9514 16.5349C36.8403 17.1387 35.6927 17.3755 34.4488 17.0372C34.16 16.9591 33.8503 16.9409 33.5484 16.9201C30.9019 16.7353 28.7004 18.6766 28.69 21.3361C28.6848 22.3874 28.9789 23.4387 29.1662 24.667C28.9502 25.0287 28.5573 25.557 28.3049 26.1477C28.0577 26.7254 27.9562 27.3655 27.7714 28.0447C27.3759 27.7715 26.9933 27.5061 26.7721 27.3525C26.9075 26.1815 27.1651 25.1588 27.1182 24.1518C26.9907 21.3986 24.5316 19.5458 21.82 19.9881C20.3133 20.2354 18.8457 20.2926 17.4535 19.335C16.4776 18.6636 15.2624 19.3324 15.1609 20.5034C15.0568 21.7108 15.0594 22.9209 15.494 24.0971C16.0951 25.7157 17.0631 27.0715 18.3018 28.2581C19.249 29.1663 20.3862 29.6061 21.6821 29.7154C23.129 29.8377 24.3833 29.3407 25.4918 28.5574C27.6205 29.783 28.206 31.2767 27.7532 34.1678C27.2171 34.4177 26.6368 34.6102 26.1424 34.9381C25.6063 35.292 25.1587 35.7708 24.6565 36.2132Z" fill="#059BD3"></path><path d="M24.6565 36.2132C25.1588 35.7734 25.6063 35.292 26.1398 34.9381C26.6316 34.6102 27.2145 34.4177 27.7506 34.1678C28.206 31.2767 27.6205 29.783 25.4892 28.5574C24.3807 29.3407 23.1264 29.8403 21.6795 29.7154C20.3836 29.6061 19.2464 29.1663 18.2992 28.2581C17.0631 27.0741 16.0925 25.7183 15.4914 24.0971C15.0542 22.9209 15.0542 21.7108 15.1583 20.5034C15.2572 19.335 16.475 18.6636 17.4509 19.335C18.8431 20.2926 20.3134 20.2354 21.8175 19.9881C24.5264 19.5432 26.9881 21.3986 27.1157 24.1518C27.1625 25.1588 26.9049 26.1789 26.7696 27.3525C26.9934 27.5061 27.3759 27.7715 27.7688 28.0447C27.9536 27.3629 28.0551 26.7254 28.3023 26.1477C28.5547 25.557 28.9476 25.0287 29.1636 24.667C28.9789 23.4387 28.6848 22.3848 28.6874 21.3361C28.6978 18.6766 30.8967 16.7353 33.5458 16.9201C33.8477 16.9409 34.1574 16.9591 34.4462 17.0372C35.6901 17.3755 36.8377 17.1387 37.9489 16.5349C39.5857 15.6476 40.637 16.2591 40.7072 18.1093C40.8296 21.3882 39.289 23.8733 36.8091 25.773C35.2763 26.9466 33.4522 27.0585 31.6332 26.3012C31.2767 26.1529 30.941 25.9577 30.5376 25.7547C29.8298 26.3949 29.4733 27.1912 29.4655 28.1358C29.4525 30.1291 29.4603 32.1225 29.4603 34.1028C30.0666 34.3994 30.6729 34.6206 31.196 34.9745C31.6904 35.3076 32.0912 35.776 32.5648 36.2132C32.8198 36.1221 33.1009 36.0207 33.3793 35.9166C34.7689 35.4065 36.0362 35.6798 37.1396 36.6062C37.5897 36.9835 37.9905 37.2151 38.6124 37.2385C40.6318 37.314 42.1593 38.9144 42.2322 40.9337C42.2504 41.4542 42.2582 41.9772 42.2296 42.4951C42.1801 43.4475 41.6311 43.9653 40.6604 44.0148C40.4444 44.0252 40.2258 44.0174 40.0098 44.0174C32.4217 44.0174 24.8309 44.0174 17.2427 44.0174C16.9382 44.0174 16.6312 44.0434 16.3319 44.0018C15.5851 43.8977 15.1687 43.4709 15.1297 42.7111C15.0906 41.9772 15.0802 41.233 15.1349 40.5017C15.265 38.8051 16.7509 37.3374 18.4632 37.2489C19.1371 37.2151 19.6498 37.0694 20.1832 36.5905C21.2606 35.6225 22.5591 35.4143 23.9383 35.9296C24.1803 36.0181 24.4145 36.1169 24.6565 36.2132ZM40.6708 42.3936C40.6708 42.0423 40.6708 41.8263 40.6708 41.6077C40.6656 39.682 39.8615 38.8311 37.9332 38.8337C37.2463 38.8337 36.8195 38.5266 36.3667 38.0816C35.4169 37.1474 34.7507 37.0642 33.5615 37.6132C32.2837 38.2039 31.9064 38.1545 31.0269 37.0017C29.8272 35.4273 27.5971 35.3076 26.2517 36.9965C25.3279 38.1571 25.0391 38.2066 23.7483 37.6028C22.5903 37.0616 21.8773 37.1084 21.055 38.0036C20.4643 38.6463 19.8424 38.93 18.9966 38.7999C17.8829 38.6307 16.8315 39.7705 16.7379 40.5564C16.6676 41.1419 16.7248 41.743 16.7248 42.391C24.7216 42.3936 32.635 42.3936 40.6708 42.3936ZM25.1796 26.1633C25.7339 25.2759 25.6922 24.4588 25.4164 23.6677C24.9766 22.403 24.006 21.2606 22.1323 21.5807C20.9769 21.7785 19.8163 21.9581 18.6609 21.6094C18.0234 21.4168 17.404 21.1722 16.7639 20.9458C16.5817 23.3893 18.0182 26.3741 19.9985 27.5503C21.31 28.331 22.6632 28.4038 24.0866 27.467C23.7067 27.1808 23.4074 26.9414 23.09 26.7254C22.619 26.4027 22.4706 25.9317 22.7491 25.4867C23.0665 24.9845 23.5792 25.1432 24.0164 25.4008C24.3859 25.6194 24.7346 25.8692 25.1796 26.1633ZM30.7406 23.3763C31.1544 23.1083 31.477 22.9131 31.7893 22.6971C32.3566 22.3042 32.9083 21.8852 33.4834 21.5027C33.8529 21.2554 34.2484 21.2867 34.5243 21.6432C34.8288 22.0361 34.7975 22.4525 34.4072 22.7908C34.212 22.9599 33.9882 23.0926 33.78 23.2462C33.2023 23.6807 32.6246 24.1153 32.0079 24.5811C33.309 25.2629 34.7429 25.2968 35.7734 24.5291C37.6834 23.1083 38.9091 21.232 39.1199 18.7963C39.1433 18.5283 39.0678 18.2498 39.0262 17.8543C37.2072 18.8822 35.4012 18.942 33.5328 18.5127C32.6168 18.3019 31.8257 18.6558 31.1752 19.2959C30.1213 20.3368 29.9521 21.7265 30.7406 23.3763Z" fill="#F6FBFD"></path><path d="M40.6708 42.3936C32.635 42.3936 24.7242 42.3936 16.7274 42.3936C16.7274 41.7456 16.6702 41.1445 16.7404 40.559C16.8341 39.7731 17.8854 38.6333 18.9992 38.8025C19.8423 38.93 20.4669 38.6463 21.0576 38.0062C21.8799 37.1084 22.5929 37.0642 23.7509 37.6054C25.0416 38.2091 25.3305 38.1597 26.2543 36.9991C27.5997 35.3102 29.8298 35.4299 31.0294 37.0043C31.909 38.1571 32.2863 38.2065 33.564 37.6158C34.7559 37.0668 35.4194 37.15 36.3693 38.0842C36.8221 38.5266 37.2488 38.8363 37.9358 38.8363C39.8641 38.8337 40.6682 39.6846 40.6734 41.6103C40.6708 41.8237 40.6708 42.0397 40.6708 42.3936ZM28.6588 37.9906C27.8833 37.9463 27.2458 38.256 26.7097 38.8129C26.3792 39.1564 26.1866 39.5181 26.5457 39.9501C26.8762 40.3508 27.2952 40.4263 27.6725 40.0724C28.3751 39.4114 29.0023 39.4036 29.6763 40.1166C29.9963 40.4549 30.3893 40.3716 30.7068 40.0542C31.0763 39.6846 31.0607 39.2943 30.7198 38.9092C30.1759 38.2898 29.5123 37.9411 28.6588 37.9906ZM22.3847 41.0846C22.9026 41.0846 23.1186 41.1003 23.3294 41.082C23.8108 41.0378 24.1465 40.775 24.1881 40.291C24.2323 39.7809 23.8784 39.4608 23.4282 39.4218C22.8427 39.3724 22.2286 39.3906 21.6587 39.5207C21.4297 39.5727 21.1461 40.0021 21.1487 40.2571C21.1513 40.5069 21.4375 40.8452 21.6899 40.978C21.971 41.1237 22.3509 41.082 22.3847 41.0846ZM34.7038 41.0898C34.8756 41.0898 35.0499 41.0925 35.2217 41.0898C35.7629 41.0742 36.1819 40.8244 36.2157 40.2779C36.2496 39.7107 35.8254 39.4556 35.2971 39.3958C35.0838 39.3724 34.8652 39.3854 34.6492 39.388C33.6447 39.3906 33.1529 39.656 33.119 40.2077C33.0904 40.801 33.6109 41.0925 34.7038 41.0898Z" fill="#089CD4"></path><path d="M25.1796 26.1633C24.7346 25.8692 24.3859 25.6194 24.0164 25.4034C23.5792 25.1458 23.0665 24.9871 22.7491 25.4893C22.468 25.9343 22.6163 26.4053 23.09 26.728C23.4074 26.944 23.7067 27.186 24.0866 27.4696C22.6632 28.4064 21.3074 28.331 19.9985 27.5529C18.0182 26.3741 16.5817 23.3919 16.7639 20.9484C17.404 21.1748 18.0234 21.4194 18.6609 21.612C19.8163 21.9607 20.9769 21.7811 22.1323 21.5833C24.0059 21.2633 24.9766 22.4056 25.4164 23.6703C25.6922 24.4614 25.7338 25.2785 25.1796 26.1633Z" fill="#089CD4"></path><path d="M30.7406 23.3763C29.9521 21.7265 30.1212 20.3369 31.1778 19.3012C31.8283 18.6636 32.622 18.3097 33.5354 18.5179C35.4038 18.9472 37.2098 18.8874 39.0288 17.8595C39.0704 18.255 39.1459 18.5309 39.1225 18.8015C38.9117 21.2372 37.686 23.1109 35.776 24.5343C34.7455 25.302 33.3116 25.2681 32.0105 24.5863C32.6272 24.1205 33.2023 23.6834 33.7826 23.2514C33.9908 23.0952 34.2146 22.9625 34.4098 22.796C34.8001 22.4577 34.8313 22.0413 34.5269 21.6484C34.2484 21.2893 33.8555 21.2607 33.486 21.5079C32.9109 21.8904 32.3592 22.3068 31.7919 22.7023C31.477 22.9131 31.1543 23.1083 30.7406 23.3763Z" fill="#099CD4"></path><path d="M28.6587 37.9906C29.5123 37.9437 30.1759 38.2924 30.7197 38.9066C31.0606 39.2917 31.0736 39.682 30.7067 40.0515C30.3892 40.3716 29.9963 40.4549 29.6762 40.114C29.0022 39.401 28.3751 39.4088 27.6725 40.0698C27.2952 40.4237 26.8762 40.3482 26.5457 39.9475C26.1866 39.5155 26.3792 39.1512 26.7096 38.8103C27.2457 38.256 27.8833 37.9437 28.6587 37.9906Z" fill="#F0F8FC"></path><path d="M22.3847 41.0846C22.3509 41.0794 21.971 41.1237 21.6899 40.9754C21.4401 40.8452 21.1538 40.5069 21.1486 40.2545C21.146 39.9995 21.4297 39.5701 21.6587 39.5181C22.2286 39.388 22.8401 39.3672 23.4282 39.4192C23.8784 39.4582 24.2323 39.7783 24.1881 40.2884C24.1464 40.7724 23.8107 41.0352 23.3293 41.0794C23.1185 41.1029 22.9026 41.0846 22.3847 41.0846Z" fill="#E0F2F9"></path><path d="M34.7038 41.0898C33.6108 41.0924 33.0878 40.801 33.1216 40.2051C33.1528 39.656 33.6473 39.3906 34.6517 39.3854C34.8677 39.3854 35.0863 39.3698 35.2997 39.3932C35.8253 39.453 36.2521 39.708 36.2183 40.2753C36.1845 40.8218 35.7655 41.0742 35.2242 41.0872C35.0499 41.0951 34.8781 41.0898 34.7038 41.0898Z" fill="#E1F2F9"></path></svg>