<svg xmlns="http://www.w3.org/2000/svg" width="58" height="58" viewBox="0 0 58 58" fill="none"><path d="M28.5785 0.000210424C44.1053 0.000210424 57.1137 12.6652 57.0512 28.8443C56.9887 44.6618 44.16 57.7015 27.8884 57.3949C12.5622 57.1067 -0.16761 44.3421 0.00166905 28.3543C0.165739 12.8355 12.8174 -0.0600616 28.5785 0.000210424ZM44.6965 31.6745C44.1444 29.5597 41.6963 28.8679 40.165 30.8411C39.4202 31.8029 38.5764 32.686 37.7925 33.6189C36.5815 35.0602 35.3132 36.4281 33.5371 37.1828C33.4173 37.2326 33.2532 37.2614 33.1959 37.3531C33.0683 37.5628 32.8626 37.8589 32.9277 38.0214C33.024 38.2546 33.3261 38.5376 33.5501 38.5455C33.9147 38.5586 34.3079 38.4092 34.6543 38.2494C36.5737 37.3715 37.855 35.7494 39.2144 34.2242C39.9957 33.349 40.7301 32.4318 41.5218 31.5618C42.087 30.9381 43.0505 31.0901 43.1573 31.8369C43.2068 32.1881 42.9438 32.6572 42.6912 32.9638C41.5505 34.3343 40.3864 35.6865 39.1832 37.002C37.4539 38.894 35.2898 39.8662 32.7298 39.8872C30.6021 39.9055 28.477 39.8924 26.3493 39.8898C26.1331 39.8898 25.9143 39.9003 25.6982 39.8793C25.1539 39.8295 24.8127 39.5282 24.7528 38.9805C24.6981 38.48 25.1278 38.0712 25.7503 38.0004C26.0081 37.9716 26.2711 37.9926 26.5316 37.9926C27.7035 37.9926 28.8754 37.9795 30.0473 37.9952C31.0005 38.0083 31.7453 37.6152 32.2219 36.8081C33.3756 34.8584 31.6776 32.9638 30.0291 33.0136C26.9925 33.1053 23.9507 33.0974 20.9141 33.024C17.2082 32.9349 14.9477 35.1991 12.8903 37.8301C12.6377 38.1524 12.6351 38.5848 13.0127 38.8835C13.4085 39.1954 13.7523 39.0067 14.0362 38.6922C14.5049 38.1786 14.9581 37.6519 15.4112 37.1225C16.8775 35.4166 18.6614 34.468 20.9714 34.5204C23.7918 34.5859 26.6149 34.5361 29.4353 34.5361C29.7374 34.5361 30.0473 34.523 30.3442 34.5675C30.8547 34.6462 31.0734 34.9947 31.0786 35.4926C31.0838 35.98 30.9068 36.3626 30.3885 36.4517C30.0499 36.5093 29.6984 36.512 29.352 36.5146C28.1358 36.5224 26.9196 36.4753 25.706 36.5277C23.7944 36.6063 22.7085 38.3909 23.5418 40.0287C24.0575 41.0428 24.9534 41.3914 26.0185 41.394C28.016 41.3992 30.0135 41.3678 32.0084 41.4019C35.7351 41.4674 38.7196 40.0077 41.0505 37.1016C41.9203 36.0167 42.8604 34.9894 43.7745 33.9386C43.9464 33.7421 44.1157 33.4564 44.3319 33.4066C44.6756 33.3306 45.1731 33.2835 45.3866 33.4722C45.5976 33.6608 45.6262 34.1692 45.5715 34.5125C45.5298 34.7798 45.2616 35.0287 45.0585 35.2515C43.324 37.1435 41.6052 39.0539 39.8316 40.9118C37.5633 43.2886 34.7455 44.5281 31.4875 44.5675C25.8023 44.6356 20.1172 44.5989 14.4294 44.6041C14.1247 44.6041 13.8226 44.5989 13.5179 44.6068C13.07 44.6172 12.7653 44.8007 12.7471 45.2986C12.7262 45.8699 13.0674 46.0611 13.57 46.0716C13.8304 46.0769 14.0909 46.0743 14.3513 46.0743C19.9505 46.0743 25.5497 46.0926 31.149 46.0664C33.8913 46.0533 36.4304 45.296 38.7326 43.7577C40.0113 42.9034 41.0557 41.8133 42.0713 40.6734C43.548 39.0172 45.0506 37.3846 46.5689 35.7651C47.7409 34.5125 47.2513 32.0623 45.173 31.7452C45.0116 31.7269 44.8449 31.6981 44.6965 31.6745ZM29.2244 25.6184C26.943 25.8438 25.2607 26.968 23.8283 28.577C23.1356 29.3553 22.3595 30.0602 21.6329 30.8071C21.3672 31.0796 21.1329 31.3836 20.9011 31.6535C21.6094 32.6808 21.7318 32.7148 22.4845 31.9889C23.3908 31.1137 24.3127 30.2463 25.1461 29.3029C27.8441 26.2448 32.1021 26.3129 34.7142 29.2688C34.9434 29.5283 35.196 29.772 35.4486 30.0078C35.7846 30.3197 36.1622 30.5922 36.5685 30.1493C36.9174 29.7694 36.8445 29.3553 36.506 28.9858C35.2038 27.5576 33.7975 26.2841 31.8573 25.7993C31.4901 25.7075 31.1151 25.6473 30.6828 25.5582C30.6828 24.4104 30.6828 23.3229 30.6828 22.238C30.6802 21.0089 30.4562 20.5189 29.9197 20.5635C29.4249 20.6054 29.227 21.064 29.2244 22.1777C29.2218 23.3019 29.2244 24.4261 29.2244 25.6184ZM26.4352 24.3894C26.4925 24.3868 26.6644 24.3842 26.8363 24.3711C28.0551 24.2767 28.4014 24.0173 28.5551 22.8564C29.0291 19.2742 25.8622 16.1374 22.1381 16.8869C21.5678 17.0022 21.2605 17.3638 21.1355 17.9377C20.4193 21.2422 22.948 24.3973 26.4352 24.3894ZM38.8212 19.2008C38.8212 18.8968 38.8446 18.5902 38.816 18.2888C38.7274 17.3455 38.4983 17.0493 37.5998 16.8764C33.7454 16.1295 30.7948 19.6148 31.3651 23.0163C31.5162 23.9151 31.8235 24.1798 32.7193 24.3423C35.8393 24.9109 38.8108 22.4109 38.8212 19.2008ZM27.0941 15.6605C27.0524 17.3271 27.7842 18.5954 29.0733 19.5598C29.7687 20.0787 30.1307 20.0708 30.8364 19.5677C33.4772 17.6861 33.5605 13.4776 30.662 11.5908C30.1567 11.2632 29.7348 11.258 29.2374 11.596C27.7894 12.5709 27.1019 13.9283 27.0941 15.6605ZM39.0842 14.5415C39.0842 14.2821 39.0842 14.02 39.0842 13.7606C39.0816 13.2836 38.7795 13.0137 38.3706 12.9928C37.9305 12.9718 37.6753 13.302 37.618 13.7344C37.5841 13.9912 37.6024 14.2532 37.605 14.5153C37.6128 15.4377 37.9097 15.9382 38.4123 15.8911C38.8759 15.8465 39.0842 15.4351 39.0842 14.5415ZM18.6692 16.575C18.6692 16.5698 18.6692 16.5672 18.6692 16.5619C18.4114 16.5619 18.1119 16.4781 17.9061 16.5829C17.6379 16.7191 17.3176 16.9655 17.2421 17.2302C17.117 17.6652 17.427 17.9901 17.8645 18.0347C18.3749 18.0844 18.9114 18.1185 19.401 18.0058C19.651 17.9482 19.9844 17.563 19.9896 17.3166C19.9948 17.0729 19.6797 16.7532 19.4244 16.5986C19.2395 16.4833 18.927 16.575 18.6692 16.575ZM41.1781 18.0661C42.113 18.0687 42.5974 17.8302 42.6417 17.3481C42.6912 16.8161 42.1755 16.5462 41.1364 16.5567C40.1806 16.5645 39.8837 16.7296 39.8525 17.2668C39.816 17.846 40.1754 18.0609 41.1781 18.0661ZM42.3969 13.9886C42.3891 13.5588 41.8526 13.1421 41.4828 13.3911C40.9307 13.7658 40.441 14.2663 40.0296 14.7983C39.7848 15.118 40.2145 15.6814 40.6442 15.7024C41.1338 15.7233 42.4073 14.4812 42.3969 13.9886ZM19.8411 15.0342C19.8333 14.4707 18.8255 13.4016 18.2681 13.3675C17.7317 13.3334 17.2915 13.8654 17.5806 14.2847C17.94 14.8009 18.4036 15.2779 18.914 15.6421C19.3724 15.9697 19.849 15.6107 19.8411 15.0342ZM22.1537 14.4472C22.1563 14.4472 22.1563 14.4472 22.1589 14.4472C22.1589 14.2323 22.1537 14.0174 22.1589 13.8025C22.172 13.3334 21.9584 13.0661 21.4818 13.0661C20.9974 13.0688 20.8099 13.3465 20.8256 13.813C20.8412 14.2847 20.7552 14.7747 20.8594 15.2254C20.9167 15.4823 21.2839 15.8649 21.474 15.8413C21.7214 15.8124 21.9949 15.477 22.1355 15.2071C22.2371 15.0079 22.1537 14.7066 22.1537 14.4472ZM37.8889 31.9837C38.0451 31.7662 38.3889 31.4937 38.4149 31.1949C38.4514 30.7835 38.0711 30.4454 37.6571 30.5345C37.4071 30.587 37.105 30.9329 37.0425 31.1975C36.9409 31.6404 37.2664 31.8946 37.8889 31.9837Z" fill="#07AFDF"></path><path d="M44.6965 31.6745C44.845 31.6981 45.0116 31.7269 45.1783 31.7531C47.2591 32.0702 47.7487 34.5204 46.5742 35.773C45.0585 37.3925 43.5558 39.025 42.0766 40.6812C41.0609 41.8211 40.0166 42.9087 38.7379 43.7656C36.4357 45.3064 33.8965 46.0611 31.1542 46.0743C25.555 46.1031 19.9558 46.0821 14.3565 46.0821C14.0961 46.0821 13.8357 46.0847 13.5752 46.0795C13.0726 46.069 12.7341 45.8751 12.7523 45.3064C12.7705 44.8112 13.0752 44.6277 13.5232 44.6146C13.8279 44.6068 14.13 44.612 14.4347 44.612C20.1198 44.6041 25.8076 44.6408 31.4928 44.5753C34.7507 44.536 37.5686 43.2965 39.8369 40.9197C41.6078 39.0617 43.3266 37.154 45.0637 35.2594C45.2668 35.0366 45.5351 34.7877 45.5768 34.5204C45.6288 34.1771 45.6028 33.6687 45.3918 33.48C45.1783 33.2913 44.6809 33.3359 44.3371 33.4145C44.1236 33.4617 43.9517 33.7499 43.7798 33.9465C42.8657 34.9947 41.9255 36.0245 41.0557 37.1094C38.7249 40.0156 35.7404 41.4752 32.0136 41.4097C30.0187 41.3757 28.0212 41.4071 26.0237 41.4019C24.956 41.3992 24.0627 41.0507 23.5471 40.0366C22.7137 38.3987 23.7997 36.6142 25.7112 36.5355C26.9248 36.4858 28.141 36.5303 29.3572 36.5224C29.7036 36.5198 30.0552 36.5198 30.3937 36.4596C30.9094 36.3705 31.0865 35.9879 31.0839 35.5004C31.0787 35.0025 30.8599 34.654 30.3495 34.5754C30.0526 34.5308 29.7427 34.544 29.4406 34.544C26.6201 34.5413 23.7971 34.5937 20.9766 34.5282C18.6666 34.4732 16.8827 35.4244 15.4165 37.1304C14.9633 37.6571 14.5076 38.1839 14.0414 38.7001C13.7549 39.0146 13.4138 39.2032 13.0179 38.8914C12.6403 38.5927 12.6429 38.1629 12.8955 37.8379C14.9529 35.2069 17.2134 32.9428 20.9193 33.0319C23.9559 33.1053 26.9977 33.1131 30.0343 33.0214C31.6829 32.9716 33.3783 34.8663 32.2272 36.8159C31.7506 37.6231 31.0057 38.0161 30.0526 38.003C28.8806 37.9873 27.7087 37.9978 26.5368 38.0004C26.2764 38.0004 26.0133 37.9795 25.7555 38.0083C25.1331 38.079 24.7034 38.4878 24.7581 38.9884C24.818 39.536 25.1591 39.84 25.7034 39.8872C25.9196 39.9055 26.1383 39.8977 26.3545 39.8977C28.4822 39.8977 30.6073 39.9134 32.735 39.8951C35.295 39.8715 37.4592 38.8993 39.1884 37.0099C40.3916 35.6944 41.5557 34.3396 42.6964 32.9716C42.949 32.6677 43.2121 32.196 43.1626 31.8448C43.0584 31.1006 42.0948 30.9486 41.5271 31.5697C40.738 32.437 40.001 33.3542 39.2197 34.2321C37.8602 35.7573 36.5789 37.3767 34.6596 38.2572C34.3132 38.4145 33.9226 38.5638 33.5554 38.5533C33.3314 38.5455 33.0267 38.2598 32.9329 38.0292C32.8678 37.8668 33.0736 37.5707 33.2012 37.361C33.2585 37.2693 33.4225 37.2405 33.5423 37.1907C35.3185 36.436 36.5867 35.0681 37.7977 33.6268C38.5816 32.6939 39.4254 31.8107 40.1703 30.849C41.6964 28.8679 44.1444 29.5597 44.6965 31.6745Z" fill="#FDFEFE"></path><path d="M29.2244 25.6184C29.2244 24.4287 29.2244 23.3019 29.2244 22.1777C29.227 21.064 29.4249 20.6054 29.9197 20.5635C30.4588 20.5189 30.6828 21.0089 30.6828 22.238C30.6828 23.3255 30.6828 24.413 30.6828 25.5582C31.1151 25.6447 31.4901 25.7075 31.8573 25.7993C33.7975 26.2814 35.2038 27.5576 36.506 28.9858C36.8445 29.3553 36.9174 29.772 36.5685 30.1493C36.1622 30.5922 35.7846 30.3197 35.4486 30.0078C35.1934 29.772 34.9434 29.5283 34.7142 29.2688C32.1021 26.3103 27.8441 26.2448 25.1461 29.3029C24.3127 30.2463 23.3908 31.1137 22.4845 31.9889C21.7318 32.7174 21.6094 32.6808 20.9011 31.6535C21.1328 31.3836 21.3672 31.0796 21.6329 30.8071C22.3595 30.0576 23.1356 29.3553 23.8283 28.577C25.2607 26.968 26.943 25.8438 29.2244 25.6184Z" fill="#FDFEFE"></path><path d="M26.4352 24.3894C22.948 24.3999 20.4193 21.2448 21.1381 17.9377C21.2631 17.3638 21.5704 17.0022 22.1407 16.8869C25.8648 16.1374 29.0316 19.2742 28.5576 22.8564C28.404 24.0173 28.0576 24.2767 26.8388 24.3711C26.6643 24.3842 26.4924 24.3868 26.4352 24.3894ZM25.8726 22.7333C25.4403 22.2773 25.0341 21.8921 24.6799 21.4623C24.3986 21.1243 24.3934 20.7417 24.732 20.4167C25.0445 20.1154 25.3492 20.2254 25.6643 20.4403C26.0315 20.6866 26.2112 21.2265 26.7789 21.2055C26.719 19.1667 24.5731 17.8407 22.5053 18.5221C22.3438 20.9041 23.7397 22.707 25.8726 22.7333Z" fill="#FDFEFE"></path><path d="M38.8211 19.2008C38.8133 22.4109 35.8392 24.9109 32.7193 24.3422C31.8235 24.1798 31.5162 23.9151 31.3651 23.0163C30.7948 19.6148 33.7454 16.1322 37.5997 16.8764C38.4982 17.0493 38.7274 17.3455 38.8159 18.2888C38.8446 18.5902 38.8211 18.8968 38.8211 19.2008ZM32.8131 21.8396C33.5162 21.1898 34.0762 20.6709 34.6074 20.1809C35.5632 20.7495 35.6335 20.9356 35.1387 21.5776C34.8366 21.9733 34.4772 22.3244 34.0814 22.7647C36.3002 22.5682 37.6987 20.6604 37.3497 18.3308C36.321 18.0478 35.3705 18.2915 34.485 18.9073C33.5293 19.5755 32.9121 20.4403 32.8131 21.8396Z" fill="#FDFEFE"></path><path d="M27.094 15.6605C27.1019 13.9283 27.7894 12.5709 29.2374 11.596C29.7348 11.2606 30.1567 11.2632 30.6619 11.5908C33.5605 13.4749 33.4771 17.6861 30.8364 19.5677C30.1306 20.0708 29.7686 20.0787 29.0733 19.5598C27.7868 18.5954 27.055 17.3245 27.094 15.6605ZM30.6202 17.5236C31.8859 16.0195 31.5916 14.227 29.9561 12.9351C28.2946 14.1956 27.9847 15.912 29.2243 17.4555C29.2243 17.031 29.2035 16.6851 29.2296 16.3418C29.2947 15.4587 29.503 15.3565 30.5187 15.705C30.5499 16.2737 30.5838 16.8607 30.6202 17.5236Z" fill="#FDFEFE"></path><path d="M39.0842 14.5415C39.0816 15.4351 38.8759 15.8465 38.4123 15.8911C37.9071 15.9382 37.6128 15.4403 37.6049 14.5153C37.6023 14.2559 37.5841 13.9912 37.618 13.7344C37.6753 13.302 37.9331 12.9718 38.3706 12.9928C38.7821 13.0137 39.0816 13.281 39.0842 13.7606C39.0868 14.0226 39.0842 14.2821 39.0842 14.5415Z" fill="#FDFEFE"></path><path d="M18.6692 16.575C18.927 16.575 19.2395 16.4833 19.427 16.5986C19.6796 16.7558 19.9974 17.0755 19.9922 17.3166C19.9869 17.563 19.6536 17.9482 19.4036 18.0058C18.914 18.1185 18.3775 18.0844 17.8671 18.0347C17.4296 17.9927 17.1197 17.6678 17.2447 17.2301C17.3202 16.9655 17.6379 16.7191 17.9088 16.5829C18.1145 16.4781 18.414 16.5619 18.6718 16.5619C18.6692 16.5672 18.6692 16.5724 18.6692 16.575Z" fill="#FDFEFE"></path><path d="M41.1781 18.0661C40.1754 18.0635 39.816 17.846 39.8499 17.2642C39.8811 16.727 40.178 16.5619 41.1338 16.5541C42.1755 16.5436 42.6886 16.8135 42.6391 17.3455C42.5974 17.8303 42.113 18.0687 41.1781 18.0661Z" fill="#FDFEFE"></path><path d="M42.3969 13.9886C42.4073 14.4812 41.1338 15.7234 40.6442 15.6998C40.2145 15.6788 39.7822 15.1154 40.0296 14.7957C40.4384 14.2637 40.9307 13.7632 41.4828 13.3885C41.85 13.1395 42.3865 13.5588 42.3969 13.9886Z" fill="#FDFEFE"></path><path d="M19.8412 15.0342C19.849 15.6107 19.3724 15.9697 18.914 15.6421C18.4036 15.2779 17.94 14.8009 17.5806 14.2847C17.2889 13.868 17.7317 13.3361 18.2681 13.3675C18.8255 13.4016 19.8333 14.4707 19.8412 15.0342Z" fill="#FDFEFE"></path><path d="M22.1537 14.4472C22.1537 14.704 22.2397 15.0079 22.1329 15.2097C21.9923 15.477 21.7188 15.8151 21.4714 15.8439C21.2813 15.8649 20.9141 15.4823 20.8568 15.2281C20.7552 14.78 20.8386 14.2873 20.8229 13.8156C20.8073 13.3465 20.9974 13.0688 21.4792 13.0688C21.9558 13.0661 22.1694 13.3334 22.1563 13.8051C22.1511 14.02 22.1563 14.2349 22.1563 14.4498C22.1563 14.4472 22.1537 14.4472 22.1537 14.4472Z" fill="#FDFEFE"></path><path d="M37.8889 31.9837C37.2639 31.8946 36.9409 31.643 37.0451 31.1975C37.1076 30.9329 37.4097 30.587 37.6597 30.5345C38.0738 30.4454 38.454 30.7835 38.4176 31.1949C38.3889 31.4937 38.0452 31.7662 37.8889 31.9837Z" fill="#FDFEFE"></path><path d="M25.8726 22.7332C23.7397 22.7044 22.3439 20.9015 22.5053 18.5221C24.5731 17.8407 26.719 19.1667 26.7789 21.2055C26.2112 21.2264 26.0315 20.6866 25.6643 20.4403C25.3492 20.228 25.0445 20.1153 24.732 20.4167C24.3934 20.7443 24.4012 21.1269 24.6799 21.4623C25.0341 21.8921 25.4403 22.2773 25.8726 22.7332Z" fill="#07AFDF"></path><path d="M32.8131 21.8397C32.9121 20.4403 33.5293 19.5755 34.4851 18.9099C35.3705 18.2941 36.3185 18.0478 37.3498 18.3334C37.6987 20.663 36.3002 22.5708 34.0814 22.7673C34.4772 22.3271 34.834 21.9733 35.1387 21.5802C35.6335 20.9382 35.5632 20.7521 34.6075 20.1835C34.0762 20.6709 33.5163 21.1898 32.8131 21.8397Z" fill="#07AFDF"></path><path d="M30.6203 17.5236C30.5839 16.8607 30.55 16.2763 30.5162 15.705C29.5005 15.3565 29.2921 15.4587 29.227 16.3418C29.201 16.6851 29.2218 17.0284 29.2218 17.4555C27.9848 15.9094 28.2921 14.1956 29.9536 12.9351C31.5917 14.2244 31.886 16.0168 30.6203 17.5236Z" fill="#07AFDF"></path></svg>