<svg xmlns="http://www.w3.org/2000/svg" width="57" height="58" viewBox="0 0 57 58" fill="none"><path d="M56.9968 28.57C57.1505 43.811 44.6159 56.976 28.5518 57.0176C13.29 57.0567 -0.0182153 44.8347 1.87152e-05 28.5023C0.0208575 12.4773 12.7351 -0.0156145 28.5466 1.46484e-05C45.1369 0.0130389 57.226 13.6442 56.9968 28.57ZM37.9684 38.7524C38.1429 38.3356 38.3226 37.9631 38.4555 37.575C38.7212 36.7962 38.9061 35.986 39.2213 35.2306C39.6719 34.1548 40.6409 33.8683 41.563 34.47C41.2479 35.8115 40.9822 37.1739 40.594 38.5023C40.4091 39.1379 40.06 39.7527 39.6693 40.2945C38.5258 41.873 37.1348 42.9983 34.9884 42.704C34.7123 42.6649 34.1783 42.9801 34.1132 43.2249C33.9673 43.7798 34.4284 43.9335 34.9155 43.9491C35.0301 43.9517 35.1447 44.0168 35.2958 44.0637C35.413 45.1551 35.5094 46.2309 35.65 47.3015C35.762 48.1455 35.9366 48.2184 36.9212 47.8642C36.817 46.5774 36.7128 45.2645 36.6295 44.2252C37.6532 43.6183 38.6039 43.2848 39.2161 42.631C40.0392 41.7532 40.9535 41.0968 41.9981 40.5576C43.2301 39.922 44.4492 39.2604 45.6553 38.5753C45.9757 38.3929 46.3951 38.1377 46.4836 37.8355C47.1453 35.5484 47.7756 33.251 48.3304 30.9378C48.5467 30.0392 47.997 29.4557 47.0749 29.3359C45.9392 29.1874 44.8061 29.0311 43.7147 28.8826C43.4854 27.5776 43.4854 27.5776 42.5868 27.7026C42.1101 29.414 41.6412 31.1046 41.1697 32.7951C38.221 32.9149 37.8563 35.1264 37.3093 37.0592C36.0434 37.5385 35.2228 37.0566 34.5273 36.0512C34.6081 35.1603 34.6888 34.2121 34.7852 33.2666C34.8582 32.5424 34.5794 32.0137 33.9751 31.6203C33.1051 31.0525 32.2351 30.4768 31.3859 29.8751C30.4065 29.1796 30.2398 28.2627 30.9535 27.3327C31.6255 26.4601 32.0892 25.3166 33.3942 25.3609C33.6313 24.5195 33.3578 24.1835 32.6649 24.2772C31.972 24.371 31.3234 24.5612 30.9144 25.241C30.6044 25.7594 30.1929 26.2153 29.8308 26.7024C28.8488 28.023 29.1197 29.7891 30.482 30.7607C31.4666 31.464 32.4773 32.1309 33.5609 32.8706C33.4776 33.7146 33.4437 34.5794 33.2952 35.4234C33.1181 36.4367 33.6573 37.127 34.1939 37.6818C33.2874 38.5232 32.4435 39.3098 31.4224 40.2606C29.6276 40.7243 27.5698 40.6592 25.5328 40.2033C25.0092 39.5547 24.5065 38.9295 23.9829 38.2835C24.3945 37.7574 24.7279 37.239 25.1499 36.8092C25.9313 36.0147 25.9548 35.1447 25.8506 34.0689C25.6787 32.2976 24.9232 31.1645 23.2249 30.6539C23.0243 30.594 22.8446 30.4533 22.7195 30.3856C21.7531 28.4007 21.8105 26.5903 23.415 24.8946C24.2955 24.9701 25.241 25.0405 26.1866 25.1368C27.0827 25.228 27.6505 24.8607 28.0465 24.0506C28.5909 22.9436 28.7732 21.8625 28.3096 20.6747C27.9944 19.8724 27.7521 19.0311 27.562 18.1897C27.351 17.252 26.8743 16.546 26.1319 15.9495C25.3478 15.3165 24.6315 14.5976 23.8214 13.8604C26.6086 12.8029 29.935 12.5788 32.3262 13.6338C31.6333 14.694 30.9222 15.7229 30.2814 16.7935C30.0522 17.179 29.7657 17.7573 29.8985 18.0907C30.245 18.9607 30.7034 19.836 31.3234 20.5236C31.6568 20.8935 32.4148 21.029 32.9801 21.0186C34.7904 20.9899 35.551 22.2194 36.3611 23.5218C34.9962 23.9282 34.9962 23.9282 35.314 24.9311C35.512 24.9311 35.7256 24.9311 35.9392 24.9311C36.6399 24.9285 37.2364 24.6992 37.5568 24.0428C37.8954 23.3551 37.5672 22.7873 37.1296 22.2637C36.7675 21.8313 36.3768 21.4197 36.0486 20.9639C35.5537 20.2788 34.9415 19.8959 34.0715 19.9428C32.6024 20.0209 31.5969 19.3931 31.1098 17.8068C31.9251 16.5721 32.7925 15.2514 33.6912 13.8891C38.966 16.2361 41.7688 20.2527 42.4539 25.7724C43.5323 25.9391 43.6912 25.8063 43.5584 24.8633C43.0165 21.0681 41.3312 17.8927 38.4346 15.3556C30.383 8.3121 17.3536 12.0188 14.2512 22.2611C13.6052 24.3919 13.3603 26.5669 13.7068 28.8644C12.4486 29.0311 11.2738 29.1796 10.1016 29.3437C9.15346 29.4765 8.67417 30.1486 8.91642 31.1072C9.46084 33.2457 10.0626 35.3713 10.6018 37.5099C10.7789 38.208 11.2868 38.5102 11.8651 38.6847C12.1152 38.7602 12.4564 38.5336 12.756 38.4424C12.6648 38.1845 12.6179 37.8954 12.4694 37.6766C12.2611 37.3692 11.8391 37.153 11.7453 36.83C11.167 34.8061 10.6565 32.7665 10.1225 30.719C11.4457 30.5393 11.8286 30.7269 12.1881 31.7896C12.5476 32.855 12.8263 33.9491 13.191 35.0118C13.3082 35.3557 13.5166 35.8141 13.8005 35.9261C15.2332 36.4992 15.1342 37.7417 15.3244 38.9217C14.8659 38.9816 14.496 39.0285 14.1678 39.0728C13.7823 39.7605 14.2277 40.0001 14.6471 40.2502C15.4624 40.7373 16.4002 41.0942 17.0748 41.7298C18.1168 42.7144 19.0389 43.8032 20.6669 43.9465C20.5367 45.1056 20.4195 46.132 20.3048 47.1557C20.2528 47.6141 20.2658 48.0856 20.8493 48.1507C21.4458 48.2184 21.5083 47.7652 21.5578 47.2963C21.6698 46.2231 21.8209 45.1525 21.9589 44.0559C22.1751 44.009 22.3757 44.022 22.4903 43.9282C22.7247 43.7407 22.9123 43.4932 23.1207 43.2718C22.8758 43.0765 22.6596 42.7717 22.3835 42.7066C21.9277 42.5998 21.4354 42.6284 20.9587 42.6284C20.0834 42.6284 19.3593 42.3367 18.781 41.6568C18.3616 41.1619 17.8485 40.7373 17.4682 40.2137C17.1217 39.737 16.8039 39.1978 16.6346 38.6378C16.322 37.6037 16.1162 36.5383 15.8896 35.4807C15.8037 35.077 15.788 34.655 15.7411 34.2486C17.0826 34.0663 17.7234 34.3763 18.109 35.4104C18.3825 36.1397 18.5492 36.9056 18.8018 37.6427C18.9321 38.0283 19.1405 38.3877 19.2707 38.6691C19.4947 38.7003 19.5442 38.7238 19.5807 38.7107C20.6383 38.3018 21.6281 38.5232 22.5632 39.0624C23.527 39.6172 24.358 40.2372 24.2616 41.5761C24.2225 42.1309 24.8347 42.3575 25.2853 41.9199C25.8219 41.3989 26.2595 41.5891 26.843 41.8131C26.843 43.3969 26.8352 44.9572 26.8482 46.5149C26.8508 46.903 26.843 47.312 26.9707 47.6662C27.0514 47.8902 27.3692 48.0283 27.5802 48.208C27.7495 47.9944 28.0517 47.7912 28.0673 47.5672C28.1246 46.6581 28.0933 45.7464 28.0933 44.8347C28.0933 43.8553 28.0933 42.8733 28.0933 41.9017C28.5205 41.9017 28.7602 41.9017 29.1457 41.9017C29.1457 43.9803 29.1457 45.9991 29.1457 47.9944C29.9037 48.2705 30.3023 48.1325 30.3544 47.4135C30.3804 47.0671 30.3648 46.7206 30.3648 46.3716C30.3648 44.8243 30.3648 43.2744 30.3648 41.4979C31.352 41.7271 32.1178 41.9069 32.9149 42.0944C33.0764 39.4713 35.0874 38.1429 37.9684 38.7524Z" fill="#09C4EB"></path><path d="M37.9683 38.7524C35.0874 38.1429 33.0764 39.4713 32.9045 42.0944C32.1074 41.9095 31.3416 41.7298 30.3543 41.4979C30.3543 43.277 30.3543 44.8243 30.3543 46.3716C30.3543 46.718 30.37 47.0671 30.3439 47.4135C30.2918 48.1325 29.8933 48.2679 29.1353 47.9944C29.1353 45.9991 29.1353 43.9803 29.1353 41.9017C28.7471 41.9017 28.5101 41.9017 28.0829 41.9017C28.0829 42.8759 28.0829 43.8553 28.0829 44.8347C28.0829 45.7464 28.1142 46.6607 28.0569 47.5672C28.0438 47.7886 27.7417 47.9944 27.5697 48.208C27.3587 48.0309 27.041 47.8928 26.9602 47.6662C26.8352 47.3119 26.8404 46.903 26.8378 46.5149C26.8274 44.9546 26.8326 43.3943 26.8326 41.8131C26.2491 41.5891 25.8115 41.3989 25.2749 41.9199C24.8268 42.3549 24.2121 42.1309 24.2512 41.5761C24.3475 40.2372 23.5166 39.6172 22.5528 39.0624C21.6177 38.5232 20.6278 38.3018 19.5702 38.7107C19.5338 38.7238 19.4843 38.7003 19.2603 38.6691C19.13 38.3877 18.9216 38.0283 18.7914 37.6427C18.5413 36.9056 18.372 36.1397 18.0985 35.4104C17.713 34.3763 17.0722 34.0637 15.7307 34.2486C15.7776 34.6576 15.7932 35.077 15.8792 35.4807C16.1032 36.5383 16.3116 37.6037 16.6242 38.6378C16.7935 39.1978 17.1113 39.737 17.4577 40.2137C17.838 40.7347 18.3486 41.1593 18.7706 41.6568C19.3462 42.3367 20.073 42.631 20.9482 42.6284C21.4249 42.6284 21.9172 42.5998 22.3731 42.7066C22.6492 42.7717 22.8654 43.0765 23.1102 43.2718C22.9018 43.4932 22.7143 43.7381 22.4799 43.9282C22.3653 44.022 22.1647 44.009 21.9485 44.0559C21.8104 45.1525 21.6593 46.2231 21.5473 47.2963C21.4978 47.7652 21.4353 48.2184 20.8388 48.1507C20.2553 48.0856 20.2449 47.6141 20.2944 47.1557C20.409 46.1294 20.5236 45.1056 20.6565 43.9465C19.0284 43.8032 18.1063 42.7144 17.0644 41.7298C16.3897 41.0942 15.4546 40.7373 14.6367 40.2502C14.2199 40.0001 13.7718 39.7605 14.1574 39.0728C14.4856 39.0311 14.8555 38.9816 15.3139 38.9217C15.1238 37.7417 15.2227 36.5018 13.7901 35.9261C13.5062 35.8115 13.2978 35.3531 13.1805 35.0118C12.8159 33.9491 12.5371 32.855 12.1777 31.7896C11.8182 30.7243 11.4379 30.5393 10.112 30.719C10.6486 32.7665 11.1592 34.8087 11.7348 36.83C11.826 37.153 12.2506 37.3692 12.459 37.6766C12.6075 37.8954 12.6544 38.1845 12.7455 38.4424C12.446 38.531 12.1047 38.7602 11.8547 38.6847C11.279 38.5102 10.7684 38.2106 10.5913 37.5099C10.0521 35.3687 9.4504 33.2457 8.90598 31.1072C8.66373 30.1512 9.14042 29.4765 10.0912 29.3437C11.2634 29.1796 12.4382 29.0311 13.6963 28.8644C13.3499 26.5643 13.5973 24.3893 14.2407 22.2611C17.3431 12.0188 30.3726 8.3121 38.4216 15.3686C41.3182 17.9058 43.0009 21.0811 43.5453 24.8764C43.6808 25.8167 43.5219 25.9496 42.4409 25.7855C41.7532 20.2658 38.953 16.2491 33.6781 13.9021C32.7795 15.2645 31.912 16.5851 31.0967 17.8198C31.5864 19.4062 32.5919 20.0339 34.0584 19.9558C34.9285 19.9115 35.5432 20.2944 36.0355 20.9769C36.3637 21.4327 36.7545 21.8443 37.1165 22.2767C37.5541 22.8003 37.8798 23.3655 37.5437 24.0558C37.2233 24.7123 36.6268 24.9415 35.9261 24.9441C35.7125 24.9441 35.4989 24.9441 35.301 24.9441C34.9832 23.9438 34.9832 23.9438 36.3481 23.5349C35.5354 22.2324 34.7748 21.0029 32.967 21.0316C32.4044 21.0394 31.6463 20.9066 31.3103 20.5367C30.6904 19.849 30.2293 18.9738 29.8855 18.1037C29.7526 17.7703 30.0366 17.192 30.2684 16.8065C30.9092 15.7359 31.6203 14.707 32.3132 13.6468C29.9219 12.5919 26.5955 12.8159 23.8083 13.8735C24.6159 14.6106 25.3322 15.3296 26.1189 15.9626C26.8612 16.5617 27.3379 17.2676 27.5489 18.2027C27.7391 19.0441 27.9813 19.8855 28.2965 20.6878C28.7602 21.8756 28.5778 22.9566 28.0334 24.0636C27.6349 24.8738 27.067 25.241 26.1735 25.1499C25.2306 25.0535 24.2824 24.9832 23.402 24.9076C21.7974 26.6034 21.7401 28.4111 22.7065 30.3986C22.8315 30.4664 23.0113 30.6044 23.2118 30.6669C24.9102 31.1775 25.663 32.3106 25.8375 34.0819C25.9417 35.1577 25.9183 36.0277 25.1368 36.8222C24.7148 37.252 24.3814 37.7678 23.9698 38.2966C24.4934 38.9452 24.9961 39.5677 25.5197 40.2163C27.5567 40.6722 29.6146 40.7347 31.4093 40.2736C32.4304 39.3229 33.2744 38.5388 34.1809 37.6948C33.6443 37.1374 33.1051 36.4497 33.2822 35.4364C33.4307 34.5925 33.4645 33.7276 33.5479 32.8837C32.4643 32.1439 31.4536 31.4771 30.4689 30.7737C29.1066 29.8021 28.8357 28.036 29.8177 26.7154C30.1798 26.2283 30.5914 25.7698 30.9014 25.2541C31.3103 24.5716 31.9589 24.3814 32.6518 24.2903C33.3447 24.1965 33.6182 24.5325 33.3812 25.3739C32.0762 25.3296 31.6125 26.4705 30.9404 27.3458C30.2267 28.2757 30.3934 29.1926 31.3728 29.8881C32.222 30.4898 33.0894 31.0629 33.9621 31.6333C34.5664 32.0267 34.8451 32.5555 34.7722 33.2796C34.6758 34.2252 34.5976 35.1733 34.5143 36.0642C35.2098 37.0697 36.0303 37.5516 37.2963 37.0723C37.8433 35.1395 38.208 32.928 41.1567 32.8081C41.6281 31.1176 42.097 29.4244 42.5737 27.7156C43.4698 27.588 43.4698 27.588 43.7016 28.8956C44.793 29.0441 45.9261 29.2004 47.0619 29.3489C47.9866 29.4687 48.5336 30.0548 48.3174 30.9509C47.7626 33.264 47.1322 35.5615 46.4706 37.8485C46.382 38.1533 45.9626 38.4086 45.6422 38.5883C44.4362 39.2708 43.2171 39.9324 41.985 40.5706C40.9379 41.1098 40.0262 41.7662 39.203 42.6441C38.5909 43.2979 37.6375 43.6287 36.6164 44.2382C36.6998 45.2776 36.8066 46.5904 36.9081 47.8772C35.9235 48.2315 35.749 48.1585 35.637 47.3146C35.4963 46.244 35.3999 45.1682 35.2827 44.0767C35.1316 44.0298 35.0196 43.9647 34.9024 43.9621C34.4153 43.9465 33.9542 43.7902 34.1001 43.238C34.1652 42.9931 34.6992 42.6805 34.9754 42.717C37.1217 43.0113 38.5127 41.886 39.6563 40.3075C40.047 39.7683 40.396 39.1509 40.581 38.5154C40.9691 37.1895 41.2348 35.8272 41.55 34.4831C40.6279 33.8813 39.6589 34.1679 39.2082 35.2437C38.8904 35.9991 38.7055 36.8092 38.4424 37.588C38.3226 37.9631 38.1429 38.3382 37.9683 38.7524ZM22.4773 14.4517C15.3061 18.0256 12.9461 26.8482 16.3324 32.8264C19.0232 32.9566 19.4035 35.1577 19.9193 37.0775C20.9743 37.2833 21.8886 37.463 22.8497 37.6506C23.2796 37.114 23.7094 36.5747 24.1392 36.0329C25.0899 34.8347 24.6836 32.6831 23.2874 32.1517C21.8573 31.6073 21.1358 30.6722 21.0081 29.19C20.9743 28.8045 20.7607 28.4242 20.7841 28.0491C20.8232 27.4213 20.9248 26.7831 21.1175 26.1866C21.2738 25.7021 21.6359 25.2879 21.8495 24.8164C22.2715 23.8969 22.9696 23.5661 23.949 23.6807C24.8451 23.7849 25.7438 23.8422 26.5903 23.9178C27.4682 22.3887 27.4682 22.3887 27.0331 20.9144C26.7779 20.0444 26.5408 19.1639 26.2517 18.3043C26.1319 17.9475 25.9652 17.5567 25.6995 17.3093C24.6627 16.3324 23.5713 15.4103 22.4773 14.4517ZM47.1322 30.5836C45.749 30.5888 45.3218 30.8467 44.9936 31.86C44.6758 32.842 44.4674 33.8605 44.1158 34.8295C43.9517 35.2801 43.6495 35.8298 43.2562 36.0173C41.886 36.6737 42.1309 37.8954 41.8522 39.091C45.228 37.6896 45.228 37.6896 46.1345 34.4101C46.2257 34.0793 46.3429 33.7511 46.4263 33.4177C46.6581 32.5138 46.8795 31.6047 47.1322 30.5836ZM44.3059 30.1225C42.6518 30.3231 43.0009 31.8209 42.4669 32.6779C42.1309 33.2145 42.5216 33.6599 42.9879 34.1106C43.4411 32.7326 43.8553 31.4849 44.3059 30.1225ZM14.1964 34.1288C15.5015 32.9045 14.2824 31.9043 14.1287 30.8779C14.0454 30.3257 13.5426 30.0965 12.993 30.2137C13.3889 31.5057 13.7718 32.7508 14.1964 34.1288Z" fill="#FDFEFE"></path><path d="M22.4773 14.4517C23.5713 15.4129 24.6602 16.335 25.7021 17.3067C25.9678 17.5541 26.1345 17.9448 26.2543 18.3017C26.5435 19.1613 26.7805 20.0391 27.0358 20.9118C27.4708 22.3861 27.4708 22.3861 26.593 23.9152C25.7464 23.8422 24.8451 23.7849 23.9517 23.6781C22.9722 23.5635 22.2741 23.8943 21.8522 24.8138C21.6359 25.2853 21.2765 25.6995 21.1202 26.184C20.9274 26.7805 20.8258 27.4213 20.7868 28.0465C20.7633 28.419 20.9769 28.8019 21.0108 29.1874C21.1384 30.6695 21.86 31.6047 23.29 32.1491C24.6862 32.6805 25.0926 34.8321 24.1418 36.0303C23.712 36.5721 23.2796 37.1113 22.8524 37.6479C21.8912 37.4604 20.9769 37.2807 19.9219 37.0749C19.4062 35.1551 19.0233 32.9514 16.3351 32.8238C12.9462 26.8482 15.3061 18.023 22.4773 14.4517Z" fill="#09C4EB"></path><path d="M47.1322 30.5836C46.8795 31.6047 46.6581 32.5112 46.4263 33.4177C46.3403 33.7511 46.2257 34.0767 46.1345 34.4101C45.228 37.6896 45.2306 37.6896 41.8521 39.091C42.1309 37.8954 41.886 36.6737 43.2562 36.0173C43.6469 35.8298 43.9517 35.2801 44.1158 34.8295C44.4674 33.8605 44.6732 32.842 44.9936 31.86C45.3218 30.8467 45.749 30.5914 47.1322 30.5836Z" fill="#09C4EB"></path><path d="M44.306 30.1225C43.8553 31.4875 43.4437 32.7326 42.9879 34.1106C42.519 33.6573 42.1309 33.2119 42.4669 32.6779C43.0009 31.8209 42.6519 30.3231 44.306 30.1225Z" fill="#09C4EB"></path><path d="M14.1965 34.1288C13.7719 32.7508 13.389 31.5057 12.993 30.2163C13.5427 30.0991 14.0454 30.3283 14.1288 30.8805C14.2824 31.9043 15.5015 32.9019 14.1965 34.1288Z" fill="#09C4EB"></path></svg>