<svg xmlns="http://www.w3.org/2000/svg" width="57" height="58" viewBox="0 0 57 58" fill="none"><path d="M56.9454 28.8363C57.0522 44.2947 44.3615 57.3659 28.4597 57.3449C12.485 57.324 -0.0415649 44.1716 0.000103652 28.6345C0.0417722 13.1708 12.2559 -0.0209392 28.5222 2.49529e-05C45.0386 0.0236097 57.2033 13.5691 56.9454 28.8363ZM20.811 20.1021C20.3448 20.1021 19.9541 20.0785 19.5687 20.1073C17.6103 20.2541 15.967 21.0664 14.7846 22.644C13.1622 24.8059 12.8705 27.2037 14.0242 29.6539C15.2065 32.1643 17.2821 33.4431 20.0453 33.4589C25.6784 33.4877 31.3141 33.4772 36.9471 33.4536C37.6294 33.451 38.3378 33.3541 38.9863 33.1549C42.1817 32.167 43.6818 29.08 43.6141 26.7503C43.5282 23.7944 41.6687 21.1319 38.9264 20.3982C38.0227 20.1571 37.0669 20.1178 36.119 19.9815C34.5668 15.4768 32.3297 13.5429 28.6186 13.5114C24.7226 13.4748 22.5142 15.3222 20.811 20.1021ZM29.1369 39.4782C29.4702 39.887 29.6499 40.2958 29.9442 40.4137C30.2437 40.5343 30.814 40.5081 30.9911 40.3063C31.4885 39.7298 31.8948 39.0563 32.2256 38.3671C32.3323 38.1444 32.1943 37.6281 31.9938 37.4735C31.7385 37.2744 31.1265 37.1171 30.9807 37.2613C30.3296 37.9111 29.7853 38.6737 29.1369 39.4782ZM23.7929 38.5296C23.8137 37.4159 22.9152 36.8053 22.384 37.3137C21.7824 37.8876 21.3605 38.6763 20.9672 39.4258C20.8631 39.6223 21.074 40.17 21.2928 40.3089C21.5688 40.4845 22.1808 40.5788 22.3397 40.4111C22.9491 39.7717 23.4309 39.0144 23.7929 38.5296ZM20.1781 36.1449C19.9385 35.8829 19.7354 35.4793 19.4333 35.3823C19.1286 35.2854 18.5973 35.3692 18.3942 35.5894C17.9306 36.0925 17.5374 36.6952 17.2587 37.3215C17.1363 37.5941 17.2535 38.1365 17.4671 38.3488C17.6806 38.5637 18.2588 38.6973 18.4879 38.5558C19.3213 38.0369 19.7172 37.1433 20.1781 36.1449ZM28.1082 36.1449C27.9233 35.8933 27.767 35.4688 27.5326 35.4164C27.1654 35.3352 26.6029 35.3692 26.3711 35.6051C25.8945 36.0873 25.5091 36.7031 25.233 37.3294C25.1158 37.5941 25.2643 38.1365 25.4857 38.3488C25.7044 38.561 26.2852 38.7025 26.5013 38.5584C27.3113 38.0238 27.7514 37.1774 28.1082 36.1449ZM37.0435 36.0715C36.9263 35.9222 36.7674 35.5605 36.4992 35.4347C36.2309 35.309 35.6997 35.2828 35.5512 35.4531C35.0147 36.0611 34.5408 36.7424 34.1553 37.4578C34.0433 37.6674 34.2126 38.1706 34.4184 38.3697C34.6215 38.5689 35.0434 38.6528 35.3455 38.6108C35.8064 38.5505 37.0357 36.7529 37.0435 36.0715ZM28.0014 41.6166C27.9858 40.6968 27.2019 40.1334 26.6758 40.6155C26.0352 41.2051 25.5924 42.0358 25.1653 42.8194C25.0742 42.9897 25.3476 43.4981 25.582 43.6684C25.8112 43.8335 26.3112 43.9174 26.5117 43.7759C27.3008 43.2203 27.7722 42.4001 28.0014 41.6166ZM18.6416 40.5055C18.5504 40.5159 18.4176 40.5107 18.2978 40.55C17.6858 40.7439 16.5998 42.4525 16.7665 43.071C16.8446 43.3566 17.1103 43.7051 17.3707 43.7942C17.6285 43.8833 18.1051 43.7864 18.277 43.5872C18.751 43.0395 19.1859 42.4342 19.5036 41.7843C19.8031 41.1632 19.3447 40.5395 18.6416 40.5055ZM34.6788 43.9095C34.7699 43.8755 34.9887 43.8597 35.0746 43.7444C35.5799 43.0605 36.1111 42.387 36.4966 41.6375C36.6033 41.4305 36.3247 40.8435 36.0669 40.681C35.8117 40.5186 35.197 40.5159 35.0226 40.7072C34.5069 41.268 34.0538 41.9205 33.723 42.6097C33.4496 43.1705 33.9991 43.8833 34.6788 43.9095Z" fill="#24C0BB"></path><path d="M20.811 20.1021C22.5142 15.3222 24.7226 13.4748 28.6186 13.5088C32.3297 13.5403 34.5668 15.4742 36.119 19.9789C37.0669 20.1125 38.0227 20.1545 38.9264 20.3956C41.6687 21.1267 43.5282 23.7918 43.6141 26.7477C43.6818 29.0773 42.1818 32.1643 38.9863 33.1523C38.3352 33.354 37.6269 33.4484 36.9471 33.451C31.3141 33.4746 25.6784 33.4851 20.0453 33.4562C17.2848 33.4431 15.2065 32.1617 14.0242 29.6512C12.8705 27.2037 13.1622 24.8059 14.7846 22.6413C15.967 21.0638 17.6103 20.2514 19.5687 20.1047C19.9541 20.0785 20.3448 20.1021 20.811 20.1021ZM28.478 31.4306C28.478 31.4253 28.478 31.4201 28.478 31.4149C31.426 31.4149 34.3715 31.4568 37.3195 31.3991C39.1972 31.3624 40.8822 29.9552 41.4369 28.1366C41.9969 26.297 41.2676 24.135 39.7077 23.0239C38.4628 22.1382 37.1112 21.9338 35.6372 22.3138C34.6215 22.5758 34.1632 22.2378 34.0329 21.2263C34.0095 21.0533 34.0329 20.8777 34.0225 20.7048C33.8923 18.3018 32.3063 16.3364 29.9755 15.6812C27.7592 15.0576 25.3294 15.9171 24.0012 17.775C23.3501 18.6844 22.996 19.6749 22.9491 20.8017C22.8866 22.3033 22.5558 22.5444 21.1313 22.2378C21.0479 22.2194 20.962 22.1985 20.8761 22.188C18.9098 21.9443 17.2795 22.5156 16.1519 24.2241C15.0711 25.862 15.1232 27.8326 16.2639 29.4835C17.2066 30.8462 18.5452 31.4253 20.1599 31.428C22.9283 31.4358 25.7044 31.4306 28.478 31.4306Z" fill="#F4FBFB"></path><path d="M29.1369 39.4782C29.7853 38.6737 30.3296 37.9111 30.9807 37.2612C31.1265 37.1171 31.7385 37.2743 31.9938 37.4735C32.1943 37.6307 32.3323 38.1444 32.2256 38.3671C31.8948 39.0563 31.4885 39.7298 30.9911 40.3063C30.8166 40.5107 30.2437 40.5343 29.9442 40.4137C29.6499 40.2958 29.4702 39.887 29.1369 39.4782Z" fill="#F2FBFA"></path><path d="M23.7929 38.5296C23.4335 39.0144 22.9491 39.7717 22.3423 40.4085C22.1835 40.5762 21.5715 40.4845 21.2954 40.3063C21.0767 40.1674 20.8657 39.6223 20.9699 39.4232C21.3631 38.6711 21.785 37.8849 22.3866 37.311C22.9127 36.8053 23.8138 37.4132 23.7929 38.5296Z" fill="#F4FBFB"></path><path d="M20.1781 36.1449C19.7172 37.1433 19.3213 38.0369 18.4853 38.5558C18.2588 38.6973 17.6806 38.561 17.4645 38.3488C17.2509 38.1365 17.1363 37.594 17.2561 37.3215C17.5348 36.6952 17.928 36.0925 18.3916 35.5893C18.5947 35.3692 19.126 35.2854 19.4307 35.3823C19.7354 35.4793 19.9411 35.8828 20.1781 36.1449Z" fill="#F0FAFA"></path><path d="M28.1082 36.1449C27.7514 37.1748 27.3113 38.0212 26.5014 38.5584C26.2852 38.7025 25.7044 38.561 25.4857 38.3488C25.2643 38.1339 25.1185 37.5941 25.2331 37.3294C25.5091 36.7031 25.8946 36.0872 26.3711 35.6051C26.6029 35.3718 27.1654 35.3378 27.5326 35.4164C27.767 35.4688 27.9207 35.8933 28.1082 36.1449Z" fill="#EFFAF9"></path><path d="M37.0435 36.0715C37.0357 36.7529 35.809 38.5505 35.3429 38.6108C35.0408 38.6501 34.6189 38.5663 34.4157 38.3697C34.2126 38.1706 34.0407 37.6648 34.1527 37.4578C34.5381 36.7424 35.0121 36.061 35.5486 35.4531C35.6971 35.2827 36.2283 35.3089 36.4966 35.4347C36.7648 35.5605 36.9237 35.9221 37.0435 36.0715Z" fill="#F2FBFA"></path><path d="M28.0015 41.6165C27.7723 42.4001 27.3009 43.2177 26.5092 43.7785C26.3086 43.92 25.8086 43.8361 25.5794 43.671C25.345 43.5007 25.0716 42.9897 25.1627 42.822C25.5898 42.0385 26.0326 41.2051 26.6733 40.6181C27.2019 40.1333 27.9858 40.6967 28.0015 41.6165Z" fill="#F2FBFA"></path><path d="M18.6416 40.5054C19.3448 40.5369 19.8032 41.1632 19.5011 41.7843C19.1833 42.4342 18.7484 43.0421 18.2744 43.5872C18.1025 43.7863 17.6286 43.8807 17.3681 43.7942C17.1103 43.7051 16.842 43.3566 16.7639 43.0709C16.5972 42.4525 17.6832 40.7439 18.2953 40.55C18.4177 40.5133 18.5505 40.5159 18.6416 40.5054Z" fill="#F4FBFB"></path><path d="M34.6788 43.9095C33.9991 43.8859 33.4496 43.1731 33.7205 42.6045C34.0512 41.9153 34.5043 41.2628 35.02 40.702C35.1945 40.5107 35.8091 40.5133 36.0643 40.6758C36.3221 40.8409 36.6008 41.4279 36.494 41.6323C36.1086 42.3817 35.5773 43.0578 35.0721 43.7392C34.9887 43.8571 34.77 43.8728 34.6788 43.9095Z" fill="#F6FCFC"></path><path d="M28.478 31.4306C25.7044 31.4306 22.9308 31.4332 20.1573 31.428C18.5452 31.4253 17.204 30.8488 16.2613 29.4835C15.1206 27.8326 15.0685 25.862 16.1493 24.2241C17.2769 22.5156 18.9046 21.9443 20.8735 22.188C20.9594 22.1985 21.0427 22.2194 21.1287 22.2378C22.5532 22.5444 22.884 22.3007 22.9465 20.8017C22.9933 19.6749 23.3475 18.6844 23.9986 17.775C25.3294 15.9171 27.7566 15.0575 29.9728 15.6812C32.3037 16.3364 33.8897 18.3018 34.0199 20.7048C34.0303 20.8777 34.0069 21.0559 34.0303 21.2263C34.1631 22.2404 34.6215 22.5758 35.6346 22.3138C37.1086 21.9364 38.4628 22.1382 39.7051 23.0239C41.265 24.1377 41.9942 26.297 41.4343 28.1366C40.8822 29.9552 39.1946 31.3651 37.3169 31.3991C34.3715 31.4568 31.4234 31.4149 28.4754 31.4149C28.478 31.4201 28.478 31.4253 28.478 31.4306Z" fill="#24C0BB"></path></svg>