<svg xmlns="http://www.w3.org/2000/svg" width="57" height="57" viewBox="0 0 57 57" fill="none"><path d="M28.3733 56.9637C12.6406 57.029 -0.330863 43.8588 0.00643289 27.8778C0.325426 12.8329 12.5988 -0.209246 28.8361 0.00254399C44.7334 0.21172 57.1323 12.8329 56.9989 28.7825C56.8656 44.8576 43.7189 57.1284 28.3733 56.9637ZM23.4995 23.8904C20.8612 23.893 18.2204 23.9061 15.5822 23.893C14.939 23.8904 14.3637 23.927 14.1676 24.7768C14.9207 25.5612 15.6972 26.3665 16.4947 27.1954C16.4136 27.3679 16.3483 27.5222 16.2751 27.6739C15.7024 28.8322 15.1377 29.9957 14.5572 31.1488C14.0944 32.0639 14.0813 33.0078 14.6383 33.8315C16.228 36.1873 17.8622 38.5144 19.5356 40.8153C20.3671 41.9579 21.5829 42.5122 22.9922 42.5698C23.8577 42.6064 24.7231 42.5907 25.5912 42.5724C26.5142 42.5541 26.6371 42.439 26.6449 41.516C26.6606 39.3066 26.6606 37.0998 26.6449 34.8904C26.6397 33.8968 26.5351 33.8158 25.5075 33.7896C24.6682 33.7687 23.8237 33.8315 22.8902 33.7399C23.0419 33.387 23.1177 33.1909 23.2092 33.0026C23.4184 32.5816 23.638 32.1633 23.8629 31.7292C24.48 32.0273 25.05 32.3359 25.6435 32.5816C26.2527 32.8353 26.6685 32.5267 26.6266 31.8731C26.611 31.6247 26.5116 31.3736 26.4175 31.1383C26.1298 30.4193 25.8213 29.7081 25.5311 28.9917C24.846 27.2869 24.1714 25.5795 23.4916 23.8721C24.1558 24.1545 24.8356 24.4055 25.4788 24.7271C26.8907 25.4331 26.875 25.4435 27.7562 24.1963C28.4438 23.2236 29.1524 22.2667 29.9081 21.2208C30.3369 21.8849 30.7003 22.4445 31.0612 23.0066C30.3866 23.6917 29.2309 23.6812 28.9956 24.8631C29.3041 25.0278 29.5812 25.271 29.8924 25.3285C32.2064 25.7521 34.5256 26.1416 36.9207 26.5522C38.0241 23.9322 39.0935 21.443 40.1132 18.9355C40.2884 18.5041 40.3198 17.9733 39.6269 17.6831C38.9575 17.9995 38.2254 18.3446 37.3835 18.7421C36.9442 18.1015 36.5102 17.4713 36.0761 16.8359C35.3702 15.8031 34.4341 15.2541 33.1425 15.2724C30.6271 15.3116 28.1092 15.3299 25.5964 15.2907C24.0433 15.2671 22.8249 15.8424 21.8914 17.0504C21.0469 18.1433 20.2102 19.2441 19.3865 20.3553C18.9839 20.8992 19.0205 21.1711 19.5983 21.5058C20.5684 22.068 21.575 22.5647 22.5477 23.1217C22.8876 23.3308 23.1805 23.6342 23.4995 23.8904ZM40.3852 25.6579C39.9825 25.8462 39.6269 25.99 39.2948 26.173C37.7809 27.0045 36.2722 27.8438 34.7636 28.6831C33.7857 29.227 33.7412 29.3996 34.3557 30.3827C35.0407 31.4782 35.7336 32.5686 36.4683 33.7295C35.6709 33.7295 34.9623 33.7295 34.1413 33.7295C34.1413 33.2484 34.136 32.8248 34.1439 32.4012C34.1517 31.9933 34.1204 31.5828 33.6654 31.439C33.1817 31.2874 32.881 31.5488 32.5986 31.9489C31.2024 33.923 29.7643 35.8683 28.3602 37.8372C27.6934 38.7706 27.7117 38.9641 28.4778 39.8505C29.2701 40.7656 30.0885 41.6599 30.8912 42.5672C31.4377 43.1816 31.9763 43.8013 32.5202 44.4131C32.8104 44.74 33.098 45.0982 33.6105 44.9465C34.1439 44.787 34.1439 44.3373 34.1387 43.8928C34.1334 43.4771 34.1387 43.0587 34.1387 42.5462C36.7847 42.8522 38.3326 41.5213 39.5877 39.5759C40.7094 37.8346 41.9017 36.1376 43.1437 34.4799C44.0876 33.2222 44.1948 32.0195 43.379 30.6703C42.5318 29.2662 41.7683 27.8124 40.9552 26.39C40.8192 26.139 40.6048 25.9325 40.3852 25.6579Z" fill="#3FBE8B"></path><path d="M23.4811 23.8747C24.161 25.5821 24.8382 27.2895 25.5206 28.9943C25.8082 29.7133 26.1194 30.4219 26.407 31.1409C26.5011 31.3763 26.6005 31.6273 26.6162 31.8757C26.6606 32.5267 26.2423 32.8353 25.633 32.5843C25.0395 32.3385 24.4695 32.0299 23.8524 31.7319C23.6302 32.1659 23.4105 32.5843 23.1988 33.0052C23.1046 33.1935 23.0314 33.3896 22.8798 33.7426C23.8132 33.8341 24.6578 33.7713 25.4971 33.7922C26.5246 33.8184 26.6292 33.8994 26.6345 34.893C26.6475 37.1024 26.6502 39.3092 26.6345 41.5187C26.6266 42.4416 26.5037 42.5567 25.5807 42.575C24.7153 42.5933 23.8472 42.609 22.9817 42.5724C21.5724 42.5122 20.3566 41.9605 19.5251 40.8179C17.8543 38.5196 16.2201 36.1899 14.6278 33.8341C14.0709 33.0104 14.0839 32.0665 14.5467 31.1514C15.1298 29.9983 15.6946 28.8348 16.2646 27.6765C16.3378 27.5248 16.4058 27.3706 16.4842 27.198C15.6867 26.3691 14.9102 25.5638 14.1571 24.7794C14.3559 23.9296 14.9285 23.8904 15.5717 23.8956C18.2099 23.9087 20.8508 23.8956 23.489 23.893L23.4811 23.8747ZM16.6202 25.2317C17.0516 25.6893 17.2922 25.99 17.5798 26.241C18.0949 26.6855 18.1446 27.164 17.7942 27.7288C17.6582 27.9458 17.5772 28.1968 17.4621 28.4269C16.9235 29.5041 16.3561 30.5683 15.8489 31.6587C15.2266 32.9921 16.0266 33.8001 17.1248 33.7949C18.5028 33.787 19.8807 33.7922 21.2822 33.7922C21.8051 32.7438 22.3098 31.7502 22.7961 30.7487C23.0628 30.1997 23.4158 29.9408 24.025 30.2519C24.1531 30.3173 24.31 30.3225 24.6159 30.3931C23.8341 28.5498 23.1229 26.8738 22.4248 25.2317C20.4638 25.2317 18.6518 25.2317 16.6202 25.2317ZM17.3183 35.1623C18.6021 37.0868 19.6768 38.9432 21.1881 40.4885C21.4704 40.7761 21.9254 41.0193 22.3202 41.0506C23.2929 41.1317 24.276 41.0768 25.2434 41.0768C25.2434 39.0164 25.2434 37.092 25.2434 35.1623C22.6157 35.1623 20.0768 35.1623 17.3183 35.1623Z" fill="#F3FAF7"></path><path d="M23.4994 23.8904C23.1804 23.6342 22.8876 23.3309 22.5372 23.1295C21.5646 22.57 20.5579 22.0758 19.5879 21.5136C19.01 21.179 18.9734 20.907 19.3761 20.3632C20.1997 19.2519 21.0364 18.1511 21.8809 17.0582C22.8144 15.8502 24.0328 15.275 25.586 15.2985C28.1013 15.3351 30.6166 15.3194 33.132 15.2802C34.4236 15.2593 35.3623 15.8084 36.0657 16.8438C36.4971 17.4765 36.9337 18.1093 37.373 18.7499C38.2149 18.3525 38.947 18.0073 39.6164 17.691C40.3093 17.9838 40.2805 18.512 40.1027 18.9434C39.083 21.4509 38.0162 23.9401 36.9102 26.56C34.5151 26.1469 32.1959 25.7599 29.8819 25.3363C29.5708 25.2788 29.2936 25.0356 28.9851 24.8709C29.2178 23.6865 30.3761 23.6969 31.0507 23.0145C30.6872 22.4523 30.3264 21.8902 29.8976 21.2286C29.1393 22.2745 28.4334 23.2315 27.7457 24.2042C26.8645 25.4514 26.8776 25.4409 25.4683 24.7349C24.8251 24.4133 24.1453 24.1623 23.4811 23.8799L23.4994 23.8904ZM36.097 25.0487C36.803 23.3309 37.4593 21.7359 38.1443 20.0677C37.5639 20.1592 37.1586 20.2246 36.7298 20.2926C36.0996 19.3382 35.5061 18.444 34.9152 17.5498C34.5361 16.9719 34.0131 16.6111 33.315 16.6032C31.72 16.5876 30.1225 16.598 28.4464 16.598C28.5824 16.8726 28.6556 17.0765 28.7759 17.2491C29.9394 18.9539 31.116 20.6508 32.2796 22.3582C32.4914 22.6693 32.8234 23.0275 32.7973 23.3413C32.7711 23.6864 32.3946 24.0028 32.1567 24.3558C33.417 24.5781 34.6799 24.8003 36.097 25.0487ZM29.0609 20.005C28.47 19.1683 27.9967 18.3917 27.4189 17.7014C26.0252 16.0332 24.0433 16.5117 23.0602 17.7302C22.3071 18.6636 21.6299 19.6598 20.8664 20.7005C22.7516 21.7176 24.5898 22.7059 26.4488 23.7074C27.3561 22.4209 28.1745 21.26 29.0609 20.005Z" fill="#F6FBF9"></path><path d="M40.3851 25.6579C40.6048 25.9325 40.8192 26.1416 40.9604 26.39C41.7735 27.8124 42.537 29.2662 43.3842 30.6703C44.2 32.0221 44.0928 33.2222 43.1489 34.4799C41.9069 36.1376 40.712 37.8346 39.5929 39.5759C38.3378 41.5239 36.7873 42.8548 34.1439 42.5462C34.1439 43.0587 34.1413 43.4745 34.1439 43.8928C34.1491 44.3373 34.1465 44.787 33.6157 44.9465C33.1032 45.1008 32.813 44.74 32.5254 44.4131C31.9815 43.7987 31.4403 43.179 30.8964 42.5672C30.0911 41.6625 29.2753 40.7656 28.4831 39.8505C27.7169 38.9667 27.6986 38.7732 28.3654 37.8372C29.7695 35.8683 31.2076 33.923 32.6038 31.9489C32.8888 31.5488 33.1895 31.2874 33.6706 31.439C34.123 31.5828 34.1543 31.9933 34.1491 32.4012C34.1413 32.8248 34.1465 33.2458 34.1465 33.7295C34.9675 33.7295 35.6761 33.7295 36.4736 33.7295C35.7388 32.566 35.0459 31.4782 34.3609 30.3827C33.7438 29.3996 33.7883 29.2244 34.7688 28.6831C36.2775 27.8438 37.7861 27.0045 39.3 26.173C39.6269 25.99 39.9825 25.8462 40.3851 25.6579ZM32.6273 42.4103C33.03 41.1578 33.0771 41.1238 34.3478 41.1108C34.7374 41.1055 35.127 41.0899 35.514 41.1134C36.2722 41.1605 36.9364 40.8205 37.3364 40.2924C38.5784 38.653 39.7158 36.9325 40.9891 35.1022C40.3799 35.1022 39.9589 35.1022 39.5354 35.1022C37.6345 35.1022 35.7336 35.1048 33.8301 35.0996C33.5765 35.0996 33.2732 35.1231 33.0797 35.0002C32.8888 34.8773 32.8051 34.5845 32.6117 34.2603C31.4847 35.816 30.4336 37.2698 29.359 38.7549C30.4885 40.0126 31.5396 41.1892 32.6273 42.4103ZM35.629 29.7787C36.4683 31.1279 37.2763 32.43 38.0947 33.7426C38.3483 33.7609 38.5601 33.787 38.7719 33.787C39.5511 33.7922 40.3302 33.821 41.1042 33.7818C42.3383 33.719 42.9292 32.8248 42.3775 31.7319C41.6428 30.2833 40.7904 28.8975 39.9328 27.3889C38.4843 28.1942 37.1063 28.9603 35.629 29.7787Z" fill="#F4FBF8"></path><path d="M16.6202 25.2317C18.6518 25.2317 20.4638 25.2317 22.4196 25.2317C23.1177 26.8764 23.8289 28.5524 24.6107 30.3931C24.3022 30.3225 24.1453 30.3173 24.0198 30.2519C23.4106 29.9382 23.0576 30.1997 22.7909 30.7487C22.3046 31.7502 21.7999 32.7411 21.277 33.7922C19.8755 33.7922 18.4976 33.787 17.1196 33.7949C16.0241 33.8001 15.2214 32.9921 15.8437 31.6587C16.3535 30.5683 16.9183 29.5041 17.4569 28.4269C17.572 28.1968 17.6556 27.9458 17.789 27.7288C18.1394 27.164 18.0897 26.6855 17.5746 26.241C17.2922 25.99 17.0516 25.6893 16.6202 25.2317Z" fill="#41BE8D"></path><path d="M17.3183 35.1623C20.0768 35.1623 22.6157 35.1623 25.2435 35.1623C25.2435 37.092 25.2435 39.0164 25.2435 41.0768C24.276 41.0768 23.2903 41.1317 22.3202 41.0506C21.9254 41.0193 21.4705 40.7761 21.1881 40.4885C19.6768 38.9432 18.6021 37.0868 17.3183 35.1623Z" fill="#42BF8D"></path><path d="M36.0971 25.0487C34.6799 24.8003 33.417 24.5781 32.1541 24.3584C32.3947 24.0054 32.7686 23.6891 32.7947 23.3439C32.8209 23.0302 32.4888 22.6746 32.277 22.3608C31.1161 20.6534 29.9395 18.9565 28.7733 17.2517C28.6557 17.0791 28.5824 16.8752 28.4439 16.6006C30.1199 16.6006 31.7149 16.5902 33.3124 16.6059C34.0132 16.6137 34.5335 16.9745 34.9126 17.5524C35.5035 18.4492 36.0945 19.3408 36.7272 20.2952C37.156 20.2272 37.5613 20.1618 38.1418 20.0703C37.4593 21.7359 36.8057 23.3309 36.0971 25.0487Z" fill="#41BE8C"></path><path d="M29.0609 20.005C28.1746 21.26 27.3562 22.4209 26.4462 23.7074C24.5898 22.7059 22.7517 21.7176 20.8639 20.7005C21.6274 19.6598 22.3046 18.6636 23.0576 17.7302C24.0433 16.5117 26.0227 16.0332 27.4163 17.7014C27.9968 18.3917 28.47 19.1683 29.0609 20.005Z" fill="#42BF8D"></path><path d="M32.6274 42.4103C31.5397 41.1918 30.4886 40.0126 29.3642 38.7523C30.4389 37.2672 31.49 35.816 32.6169 34.2577C32.8104 34.5819 32.8915 34.8773 33.085 34.9976C33.2784 35.1205 33.5817 35.0944 33.8354 35.097C35.7363 35.1048 37.6371 35.0996 39.5406 35.0996C39.9616 35.0996 40.3852 35.0996 40.9944 35.0996C39.7184 36.9299 38.5837 38.6503 37.3417 40.2898C36.9416 40.8179 36.2775 41.1578 35.5192 41.1108C35.1323 41.0872 34.7427 41.1029 34.3531 41.1082C33.0771 41.1238 33.03 41.1578 32.6274 42.4103Z" fill="#42BF8D"></path><path d="M35.629 29.7787C37.1063 28.9603 38.4843 28.1942 39.9328 27.3915C40.7905 28.9002 41.6428 30.2859 42.3776 31.7345C42.9319 32.8274 42.3384 33.7216 41.1042 33.7844C40.3277 33.8236 39.5485 33.7949 38.7719 33.7896C38.5601 33.787 38.3483 33.7609 38.0947 33.7452C37.2763 32.43 36.4657 31.1279 35.629 29.7787Z" fill="#40BE8C"></path></svg>