<svg xmlns="http://www.w3.org/2000/svg" width="57" height="57" viewBox="0 0 57 57" fill="none"><path d="M28.5298 56.9608C12.8907 57.0493 0.28884 44.4293 0.0051553 29.0921C-0.294145 13.0418 12.4769 0.0391292 28.3944 9.0051e-05C44.2938 -0.0389491 56.9295 12.6202 56.9997 28.4857C57.0674 44.1039 44.2157 57.0701 28.5298 56.9608ZM23.7332 38.7452C23.7358 38.7452 23.7384 38.7452 23.7384 38.7452C23.7384 39.4817 23.7332 40.2182 23.7384 40.9548C23.7592 43.5079 25.1125 45.7228 27.7256 46.7118C30.4557 47.745 33.2587 46.2042 34.3987 44.6401C35.2888 43.4168 35.5412 42.0661 35.6063 40.6503C35.6713 39.224 35.6323 37.7926 35.6167 36.3638C35.6063 35.2915 35.8926 34.3207 36.5614 33.4801C36.9883 32.9413 37.4437 32.4208 37.9252 31.9315C40.5903 29.2092 41.6365 25.857 41.0327 22.2134C40.1244 16.7375 36.2283 13.1172 30.6769 12.4978C27.2493 12.1152 24.2172 13.2786 21.7213 15.647C19.1786 18.0622 18.0621 21.0604 18.2104 24.5922C18.3405 27.6997 19.6731 30.2268 21.776 32.361C22.9602 33.5608 23.6863 34.8647 23.7306 36.5355C23.7488 37.2721 23.7332 38.0086 23.7332 38.7452ZM14.9467 14.5149C14.84 14.5877 14.5564 14.684 14.4627 14.8714C14.3742 15.0536 14.3872 15.4154 14.5147 15.5533C15.1185 16.217 15.7614 16.852 16.4302 17.448C16.5656 17.5677 16.9456 17.5677 17.1095 17.461C17.2839 17.3491 17.4166 17.0524 17.4296 16.8286C17.4609 16.2768 15.6182 14.5018 14.9467 14.5149ZM44.9939 15.1135C44.9392 15.0172 44.8768 14.7465 44.7258 14.684C44.476 14.5773 44.0543 14.468 43.906 14.5929C43.2267 15.1733 42.5865 15.8083 42.0009 16.485C41.8682 16.6386 41.9384 17.0758 42.0634 17.3022C42.1544 17.4688 42.6151 17.6406 42.6932 17.5677C43.4818 16.8572 44.2235 16.0998 44.9757 15.3503C44.9991 15.3269 44.9835 15.2644 44.9939 15.1135ZM42.6619 35.9083C42.066 35.9031 41.6573 36.6318 42.0009 37.0535C42.537 37.7145 43.1538 38.3183 43.8019 38.8753C44.0986 39.1303 44.5306 39.0965 44.8325 38.74C45.111 38.4094 45.0147 38.1049 44.744 37.8316C44.1715 37.2539 43.5963 36.6761 43.0107 36.1113C42.8988 36.002 42.7296 35.9474 42.6619 35.9083ZM16.5447 35.8667C15.8551 36.559 15.2122 37.1992 14.5772 37.8447C14.2961 38.1309 14.2024 38.5005 14.5433 38.74C14.7828 38.9065 15.1602 38.9169 15.4777 38.9169C15.6078 38.9169 15.7457 38.7191 15.8681 38.5994C16.2689 38.2038 16.6775 37.8186 17.0601 37.4048C17.7133 36.6917 17.6431 36.4497 16.5447 35.8667Z" fill="#5ABA5B"></path><path d="M23.7332 38.7452C23.7332 38.0086 23.7488 37.2721 23.7306 36.5355C23.6863 34.8621 22.9602 33.5608 21.776 32.361C19.6731 30.2268 18.3406 27.6997 18.2104 24.5922C18.0621 21.063 19.1812 18.0622 21.7214 15.647C24.2147 13.2786 27.2467 12.1152 30.6769 12.4978C36.2309 13.1172 40.127 16.7375 41.0327 22.2134C41.6365 25.857 40.5929 29.2092 37.9252 31.9315C37.4437 32.4234 36.9909 32.9439 36.5614 33.4801C35.8952 34.3181 35.6063 35.2889 35.6167 36.3638C35.6323 37.7926 35.6713 39.224 35.6063 40.6503C35.5412 42.0661 35.2888 43.4168 34.3987 44.6401C33.2613 46.2042 30.4583 47.745 27.7256 46.7117C25.1125 45.7228 23.7566 43.5079 23.7384 40.9548C23.7332 40.2182 23.7384 39.4817 23.7384 38.7452C23.7384 38.7452 23.7358 38.7452 23.7332 38.7452ZM33.951 37.613C34.0265 37.5167 34.0733 37.4855 34.0759 37.4517C34.0916 37.1498 34.102 36.8453 34.1046 36.5434C34.115 34.5914 34.8411 32.9465 36.2205 31.5776C36.5588 31.2418 36.9076 30.9139 37.2173 30.5521C39.4165 27.9834 40.0593 25.0034 39.4139 21.7371C38.9793 19.5457 37.7769 17.7863 36.1008 16.3237C33.7662 14.2884 30.9971 13.5935 28.0327 14.075C25.4223 14.4966 23.1736 15.7719 21.6042 18.018C19.4206 21.1385 18.9704 24.4464 20.5189 27.9834C21.0837 29.2717 21.8827 30.3674 22.8925 31.3381C24.0012 32.4052 24.7976 33.6701 25.0475 35.2186C25.175 36.0098 25.2505 36.8088 25.3468 37.5948C26.5492 37.5948 27.6969 37.5948 28.9228 37.5948C28.9228 36.6214 28.9228 35.7183 28.9228 34.8126C28.9228 33.8757 28.9228 32.9387 28.9228 31.9367C27.7464 32.1163 26.7522 32.1059 25.7528 31.8196C22.8899 31.0024 20.9302 27.7283 21.8879 24.5271C22.0363 24.0274 22.3252 23.7463 22.8509 23.6058C24.9122 23.0618 26.7756 23.3533 28.3866 24.8134C28.8265 25.2116 29.2325 25.6488 29.6671 26.0782C30.1486 25.6072 30.5598 25.1673 31.0101 24.7691C32.6367 23.3299 34.508 23.0592 36.5614 23.6188C37.0924 23.7645 37.3969 24.0742 37.4645 24.587C37.5869 25.5109 37.7066 26.3984 37.5556 27.377C37.1392 30.0707 34.2113 32.5249 31.1558 31.9862C30.9268 31.9445 30.6743 32.0408 30.4219 32.0721C30.4219 33.0558 30.4219 33.9668 30.4219 34.8777C30.4219 35.773 30.4219 36.6709 30.4219 37.6104C31.6711 37.613 32.7903 37.613 33.951 37.613ZM31.0647 39.0731C31.4916 39.5546 31.8325 39.8747 32.0875 40.2521C32.2073 40.4317 32.2697 40.8038 32.163 40.9418C32.0095 41.1422 31.6659 41.3296 31.4317 41.3009C31.109 41.2619 30.8123 41.0172 30.4167 40.8168C30.4167 41.8943 30.4375 42.8443 30.4089 43.7916C30.3958 44.2575 30.0861 44.4631 29.6229 44.4501C29.2117 44.4371 28.9696 44.2237 28.9332 43.8281C28.8994 43.4507 28.9254 43.0681 28.9254 42.5762C28.6313 42.7974 28.4751 42.9536 28.2877 43.0447C27.9182 43.2269 27.5252 43.2867 27.2285 42.9223C26.9188 42.5398 27.0957 42.1988 27.4002 41.8995C27.6761 41.6262 27.926 41.3191 28.2305 41.0797C28.928 40.5305 29.0841 39.8643 28.7796 39.0028C28.1888 39.0028 27.6319 39.0028 27.0749 39.0028C26.4841 39.0028 25.8933 39.0028 25.2349 39.0028C25.2349 39.7498 25.2739 40.351 25.2271 40.947C25.149 41.9464 25.5003 42.8052 26.0131 43.6198C27.5876 46.1184 31.3848 46.1158 33.0922 43.9165C34.2581 42.4148 34.1957 40.7648 34.0239 39.0731C33.0427 39.0731 32.1578 39.0731 31.0647 39.0731ZM36.0878 25.0372C32.6575 24.4802 30.2683 26.3229 30.5338 29.4226C31.2313 28.7251 31.8741 28.0953 32.5014 27.4524C32.8579 27.0881 33.2275 26.846 33.7506 27.1401C34.0343 27.7361 33.8807 28.202 33.4123 28.6392C32.7668 29.243 32.1578 29.8833 31.4525 30.5886C32.91 30.6406 34.2659 30.1539 34.9921 29.3159C36.0409 28.1083 36.4625 26.7133 36.0878 25.0372ZM28.8083 29.433C29.0971 26.3151 26.4191 24.2877 23.2517 25.0893C22.8613 28.5143 24.769 30.8254 27.8401 30.5599C27.4835 30.1904 27.1582 29.8468 26.8303 29.5137C26.406 29.0817 25.974 28.6574 25.5498 28.228C25.2323 27.9079 25.1386 27.5617 25.5055 27.2208C25.8387 26.9137 26.2135 26.9293 26.5544 27.2052C26.7886 27.3926 26.9916 27.6242 27.205 27.8376C27.723 28.3477 28.2383 28.8604 28.8083 29.433Z" fill="#FDFEFD"></path><path d="M14.9468 14.5148C15.6182 14.5018 17.4609 16.2768 17.4297 16.8286C17.4166 17.0524 17.2865 17.3491 17.1095 17.461C16.9456 17.5651 16.5656 17.5677 16.4303 17.448C15.7588 16.852 15.1185 16.217 14.5147 15.5533C14.3872 15.4154 14.3742 15.0536 14.4627 14.8714C14.5564 14.6814 14.8375 14.5877 14.9468 14.5148Z" fill="#FDFEFD"></path><path d="M44.9939 15.1135C44.9861 15.267 45.0017 15.3269 44.9783 15.3503C44.2261 16.0998 43.4818 16.8572 42.6958 17.5677C42.6177 17.638 42.157 17.4662 42.0659 17.3022C41.941 17.0784 41.8707 16.6386 42.0035 16.485C42.5865 15.8083 43.2267 15.1733 43.9086 14.5929C44.0569 14.4654 44.4786 14.5773 44.7284 14.684C44.8742 14.7465 44.9366 15.0146 44.9939 15.1135Z" fill="#FDFEFD"></path><path d="M42.6619 35.9083C42.7296 35.9474 42.8988 36.002 43.0133 36.1139C43.5989 36.6787 44.1741 37.2539 44.7466 37.8342C45.0147 38.1075 45.1136 38.412 44.8351 38.7426C44.5332 39.0991 44.1012 39.133 43.8045 38.8779C43.159 38.3235 42.5396 37.7171 42.0035 37.0561C41.6573 36.6318 42.0659 35.9031 42.6619 35.9083Z" fill="#FDFEFD"></path><path d="M16.5448 35.8667C17.6431 36.4471 17.7159 36.6917 17.0575 37.4022C16.6775 37.816 16.2663 38.2038 15.8655 38.5968C15.7432 38.7165 15.6052 38.9143 15.4751 38.9143C15.1602 38.9143 14.7828 38.9039 14.5407 38.7374C14.1998 38.4979 14.2935 38.1283 14.5746 37.8421C15.2122 37.1992 15.8551 36.559 16.5448 35.8667Z" fill="#FDFEFD"></path><path d="M33.951 37.613C32.7903 37.613 31.6737 37.613 30.4193 37.613C30.4193 36.6735 30.4193 35.7782 30.4193 34.8803C30.4193 33.9694 30.4193 33.0585 30.4193 32.0747C30.6717 32.0408 30.9242 31.9471 31.1532 31.9888C34.2087 32.5275 37.1366 30.0707 37.553 27.3796C37.704 26.401 37.5817 25.5135 37.4619 24.5896C37.3943 24.0768 37.0898 23.7671 36.5588 23.6214C34.5054 23.0618 32.6341 23.3325 31.0075 24.7717C30.5572 25.1699 30.146 25.6098 29.6645 26.0809C29.2299 25.6488 28.8239 25.2142 28.384 24.816C26.773 23.3559 24.9096 23.0644 22.8483 23.6084C22.3226 23.7463 22.0337 24.03 21.8853 24.5297C20.9302 27.7309 22.8873 31.005 25.7502 31.8222C26.7522 32.1085 27.7464 32.1189 28.9202 31.9393C28.9202 32.9413 28.9202 33.8783 28.9202 34.8152C28.9202 35.7183 28.9202 36.624 28.9202 37.5974C27.6943 37.5974 26.5466 37.5974 25.3442 37.5974C25.2479 36.8114 25.1724 36.0124 25.0449 35.2212C24.795 33.6727 23.9986 32.4078 22.8899 31.3407C21.8801 30.37 21.0811 29.2743 20.5163 27.986C18.9678 24.449 19.4206 21.1437 21.6016 18.0206C23.171 15.7745 25.4197 14.5018 28.0301 14.0776C30.9945 13.5987 33.761 14.291 36.0982 16.3263C37.7743 17.7863 38.9767 19.5457 39.4113 21.7397C40.0594 25.006 39.4165 27.9834 37.2147 30.5547C36.905 30.9165 36.5562 31.2444 36.2179 31.5802C34.8385 32.9491 34.115 34.594 34.102 36.546C34.0994 36.8479 34.0864 37.1524 34.0733 37.4543C34.0733 37.4855 34.0265 37.5167 33.951 37.613ZM36.3714 20.467C37.363 19.9543 37.4229 19.806 36.9544 19.059C35.9342 17.435 34.4403 16.4043 32.7044 15.6756C32.3166 15.5116 31.96 15.6288 31.8507 15.9775C31.7648 16.2508 31.8403 16.6542 31.9991 16.9014C32.1422 17.1227 32.4884 17.219 32.759 17.3439C33.9849 17.9191 35.0181 18.7103 35.7546 19.8736C35.9056 20.1105 36.171 20.2796 36.3714 20.467ZM29.7114 15.0562C28.8681 15.7147 28.751 16.0035 29.131 16.3783C29.4589 16.701 29.9664 16.6776 30.2657 16.3315C30.5728 15.9723 30.4895 15.7615 29.7114 15.0562Z" fill="#5ABA5B"></path><path d="M31.0647 39.0731C32.1578 39.0731 33.0453 39.0731 34.0265 39.0731C34.1983 40.7648 34.2581 42.4148 33.0948 43.9166C31.3875 46.1184 27.5903 46.1184 26.0157 43.6198C25.503 42.8052 25.1516 41.949 25.2297 40.947C25.2765 40.351 25.2375 39.7472 25.2375 39.0028C25.896 39.0028 26.4867 39.0028 27.0775 39.0028C27.6345 39.0028 28.1915 39.0028 28.7822 39.0028C29.0894 39.8643 28.9332 40.5279 28.2331 41.0797C27.9286 41.3191 27.6787 41.6263 27.4029 41.8995C27.0984 42.2014 26.9188 42.5398 27.2311 42.9224C27.5278 43.2867 27.9208 43.2269 28.2904 43.0447C28.4777 42.951 28.6339 42.7948 28.928 42.5762C28.928 43.0681 28.902 43.4507 28.9358 43.8281C28.9696 44.2237 29.2143 44.4371 29.6255 44.4501C30.0888 44.4657 30.3985 44.2575 30.4115 43.7916C30.4401 42.8443 30.4193 41.8969 30.4193 40.8168C30.8149 41.0172 31.1116 41.2619 31.4343 41.3009C31.6711 41.3296 32.0121 41.1422 32.1656 40.9418C32.2697 40.8064 32.2099 40.4317 32.0902 40.2521C31.8325 39.8747 31.4916 39.5546 31.0647 39.0731Z" fill="#5ABA5B"></path><path d="M36.0878 25.0372C36.4599 26.7133 36.0383 28.1083 34.9921 29.3159C34.2659 30.1513 32.91 30.6406 31.4525 30.5886C32.1578 29.8833 32.7668 29.2404 33.4123 28.6392C33.8807 28.202 34.0343 27.7361 33.7506 27.1401C33.2275 26.846 32.8579 27.0881 32.5014 27.4524C31.8741 28.0953 31.2313 28.7251 30.5338 29.4226C30.2709 26.3229 32.6575 24.4802 36.0878 25.0372Z" fill="#5ABA5B"></path><path d="M28.8083 29.433C28.2357 28.863 27.723 28.3477 27.2051 27.835C26.9916 27.6216 26.7886 27.3926 26.5544 27.2026C26.2135 26.9293 25.8387 26.9111 25.5056 27.2182C25.136 27.5591 25.2323 27.9053 25.5498 28.2254C25.974 28.6548 26.4061 29.0817 26.8303 29.5111C27.1608 29.8468 27.4835 30.1878 27.8401 30.5573C24.769 30.8228 22.8613 28.5117 23.2517 25.0867C26.4191 24.2851 29.0998 26.3125 28.8083 29.433Z" fill="#5ABA5B"></path><path d="M36.3714 20.467C36.171 20.2796 35.9055 20.1105 35.7546 19.871C35.0207 18.7077 33.9848 17.9191 32.759 17.3413C32.4909 17.2138 32.1422 17.1175 31.999 16.8988C31.8403 16.6542 31.7648 16.2482 31.8507 15.9749C31.96 15.6262 32.3165 15.5117 32.7043 15.673C34.4377 16.4043 35.9342 17.4324 36.9544 19.0564C37.4229 19.806 37.363 19.9543 36.3714 20.467Z" fill="#FDFEFD"></path><path d="M29.7114 15.0562C30.4896 15.7589 30.5755 15.9697 30.2657 16.3289C29.9664 16.6776 29.4589 16.6984 29.131 16.3757C28.7484 16.0035 28.8655 15.7173 29.7114 15.0562Z" fill="#FDFEFD"></path></svg>